Hacktype-Base.ufo
<glyph name="parenleft" format="2">
	<advance width="287"/>
	<unicode hex="0028"/>
	<outline>
		<contour>
			<point x="65" y="-150" type="curve" smooth="yes"/>
			<point x="222" y="-150" type="line" smooth="yes"/>
			<point x="230" y="-150"/>
			<point x="237" y="-143"/>
			<point x="237" y="-135" type="curve" smooth="yes"/>
			<point x="237" y="-55" type="line" smooth="yes"/>
			<point x="237" y="-47"/>
			<point x="230" y="-40"/>
			<point x="222" y="-40" type="curve" smooth="yes"/>
			<point x="175" y="-40" type="line" smooth="yes"/>
			<point x="167" y="-40"/>
			<point x="160" y="-33"/>
			<point x="160" y="-25" type="curve" smooth="yes"/>
			<point x="160" y="575" type="line" smooth="yes"/>
			<point x="160" y="583"/>
			<point x="167" y="590"/>
			<point x="175" y="590" type="curve" smooth="yes"/>
			<point x="222" y="590" type="line" smooth="yes"/>
			<point x="230" y="590"/>
			<point x="237" y="597"/>
			<point x="237" y="605" type="curve" smooth="yes"/>
			<point x="237" y="685" type="line" smooth="yes"/>
			<point x="237" y="693"/>
			<point x="230" y="700"/>
			<point x="222" y="700" type="curve" smooth="yes"/>
			<point x="65" y="700" type="line" smooth="yes"/>
			<point x="57" y="700"/>
			<point x="50" y="693"/>
			<point x="50" y="685" type="curve" smooth="yes"/>
			<point x="50" y="-135" type="line" smooth="yes"/>
			<point x="50" y="-143"/>
			<point x="57" y="-150"/>
		</contour>
	</outline>
</glyph>
<glyph name="comma" format="2">
	<advance width="210"/>
	<unicode hex="002C"/>
	<outline>
		<contour>
			<point x="50" y="86" type="curve" smooth="yes"/>
			<point x="50" y="-124" type="line" smooth="yes"/>
			<point x="50" y="-132"/>
			<point x="57" y="-139"/>
			<point x="65" y="-139" type="curve" smooth="yes"/>
			<point x="145" y="-139" type="line" smooth="yes"/>
			<point x="153" y="-139"/>
			<point x="160" y="-132"/>
			<point x="160" y="-124" type="curve" smooth="yes"/>
			<point x="160" y="86" type="line" smooth="yes"/>
			<point x="160" y="94"/>
			<point x="153" y="101"/>
			<point x="145" y="101" type="curve" smooth="yes"/>
			<point x="65" y="101" type="line" smooth="yes"/>
			<point x="57" y="101"/>
			<point x="50" y="94"/>
		</contour>
	</outline>
</glyph>
<glyph name="slash" format="2">
	<advance width="210"/>
	<unicode hex="002F"/>
	<outline>
		<contour>
			<point x="50" y="685" type="curve" smooth="yes"/>
			<point x="50" y="-135" type="line" smooth="yes"/>
			<point x="50" y="-143"/>
			<point x="57" y="-150"/>
			<point x="65" y="-150" type="curve" smooth="yes"/>
			<point x="145" y="-150" type="line" smooth="yes"/>
			<point x="153" y="-150"/>
			<point x="160" y="-143"/>
			<point x="160" y="-135" type="curve" smooth="yes"/>
			<point x="160" y="685" type="line" smooth="yes"/>
			<point x="160" y="693"/>
			<point x="153" y="700"/>
			<point x="145" y="700" type="curve" smooth="yes"/>
			<point x="65" y="700" type="line" smooth="yes"/>
			<point x="57" y="700"/>
			<point x="50" y="693"/>
		</contour>
	</outline>
</glyph>
<glyph name="one" format="2">
	<advance width="852"/>
	<unicode hex="0031"/>
	<outline>
		<contour>
			<point x="802" y="71" type="line" smooth="yes"/>
			<point x="802" y="31"/>
			<point x="771" y="0"/>
			<point x="730" y="0" type="curve" smooth="yes"/>
			<point x="345" y="0" type="line" smooth="yes"/>
			<point x="305" y="0"/>
			<point x="296" y="0"/>
			<point x="284" y="0" type="curve"/>
			<point x="274" y="0" type="line" smooth="yes"/>
			<point x="266" y="0"/>
			<point x="268" y="0"/>
			<point x="260" y="0" type="curve" smooth="yes"/>
			<point x="246" y="0" type="line" smooth="yes"/>
			<point x="238" y="0"/>
			<point x="240" y="0"/>
			<point x="232" y="0" type="curve" smooth="yes"/>
			<point x="222" y="0" type="line"/>
			<point x="215" y="0"/>
			<point x="201" y="0"/>
			<point x="161" y="0" type="curve" smooth="yes"/>
			<point x="121" y="0" type="line" smooth="yes"/>
			<point x="81" y="0"/>
			<point x="50" y="30"/>
			<point x="50" y="71" type="curve" smooth="yes"/>
			<point x="50" y="629" type="line" smooth="yes"/>
			<point x="50" y="669"/>
			<point x="81" y="700"/>
			<point x="121" y="700" type="curve" smooth="yes"/>
			<point x="730" y="700" type="line" smooth="yes"/>
			<point x="771" y="700"/>
			<point x="802" y="669"/>
			<point x="802" y="629" type="curve" smooth="yes"/>
		</contour>
	</outline>
</glyph>
<glyph name="two" format="2">
	<advance width="850"/>
	<unicode hex="0032"/>
	<outline>
		<contour>
			<point x="50" y="437" type="curve" smooth="yes"/>
			<point x="50" y="583" type="line" smooth="yes"/>
			<point x="50" y="651"/>
			<point x="99" y="700"/>
			<point x="167" y="700" type="curve" smooth="yes"/>
			<point x="683" y="700" type="line" smooth="yes"/>
			<point x="751" y="700"/>
			<point x="800" y="651"/>
			<point x="800" y="583" type="curve" smooth="yes"/>
			<point x="800" y="341" type="line" smooth="yes"/>
			<point x="800" y="273"/>
			<point x="800" y="254"/>
			<point x="800" y="234" type="curve"/>
			<point x="800" y="224" type="line" smooth="yes"/>
			<point x="800" y="216"/>
			<point x="800" y="217"/>
			<point x="800" y="209" type="curve" smooth="yes"/>
			<point x="800" y="197" type="line" smooth="yes"/>
			<point x="800" y="189"/>
			<point x="800" y="190"/>
			<point x="800" y="182" type="curve" smooth="yes"/>
			<point x="800" y="172" type="line"/>
			<point x="800" y="150"/>
			<point x="800" y="152"/>
			<point x="800" y="111" type="curve" smooth="yes"/>
			<point x="800" y="71" type="line" smooth="yes"/>
			<point x="800" y="30"/>
			<point x="770" y="0"/>
			<point x="729" y="0" type="curve" smooth="yes"/>
			<point x="121" y="0" type="line" smooth="yes"/>
			<point x="80" y="0"/>
			<point x="50" y="30"/>
			<point x="50" y="71" type="curve" smooth="yes"/>
			<point x="50" y="253" type="line" smooth="yes"/>
			<point x="50" y="294"/>
			<point x="50" y="287"/>
			<point x="50" y="307" type="curve"/>
			<point x="50" y="310" type="line"/>
			<point x="50" y="315"/>
			<point x="50" y="315"/>
			<point x="50" y="317" type="curve"/>
			<point x="50" y="324" type="line" smooth="yes"/>
			<point x="50" y="333"/>
			<point x="50" y="329"/>
			<point x="50" y="339" type="curve" smooth="yes"/>
			<point x="50" y="351" type="line" smooth="yes"/>
			<point x="50" y="361"/>
			<point x="50" y="356"/>
			<point x="50" y="366" type="curve" smooth="yes"/>
			<point x="50" y="370" type="line"/>
			<point x="50" y="372"/>
			<point x="50" y="371"/>
			<point x="50" y="374" type="curve"/>
			<point x="50" y="376" type="line"/>
			<point x="50" y="388"/>
			<point x="50" y="396"/>
		</contour>
	</outline>
</glyph>
<glyph name="three" format="2">
	<advance width="852"/>
	<unicode hex="0033"/>
	<outline>
		<contour>
			<point x="802" y="629" type="line" smooth="yes"/>
			<point x="802" y="669"/>
			<point x="771" y="700"/>
			<point x="731" y="700" type="curve" smooth="yes"/>
			<point x="122" y="700" type="line" smooth="yes"/>
			<point x="81" y="700"/>
			<point x="50" y="669"/>
			<point x="50" y="629" type="curve" smooth="yes"/>
			<point x="50" y="566" type="line" smooth="yes"/>
			<point x="50" y="526"/>
			<point x="50" y="520"/>
			<point x="50" y="505" type="curve"/>
			<point x="50" y="495" type="line" smooth="yes"/>
			<point x="50" y="485"/>
			<point x="50" y="489"/>
			<point x="50" y="481" type="curve" smooth="yes"/>
			<point x="50" y="467" type="line" smooth="yes"/>
			<point x="50" y="459"/>
			<point x="50" y="463"/>
			<point x="50" y="453" type="curve" smooth="yes"/>
			<point x="50" y="443" type="line"/>
			<point x="50" y="422"/>
			<point x="50" y="422"/>
			<point x="50" y="382" type="curve" smooth="yes"/>
			<point x="50" y="318" type="line" smooth="yes"/>
			<point x="50" y="278"/>
			<point x="50" y="274"/>
			<point x="50" y="257" type="curve"/>
			<point x="50" y="247" type="line" smooth="yes"/>
			<point x="50" y="237"/>
			<point x="50" y="241"/>
			<point x="50" y="233" type="curve" smooth="yes"/>
			<point x="50" y="219" type="line" smooth="yes"/>
			<point x="50" y="211"/>
			<point x="50" y="215"/>
			<point x="50" y="205" type="curve" smooth="yes"/>
			<point x="50" y="195" type="line"/>
			<point x="50" y="177"/>
			<point x="50" y="174"/>
			<point x="50" y="134" type="curve" smooth="yes"/>
			<point x="50" y="71" type="line" smooth="yes"/>
			<point x="50" y="31"/>
			<point x="81" y="0"/>
			<point x="122" y="0" type="curve" smooth="yes"/>
			<point x="731" y="0" type="line" smooth="yes"/>
			<point x="771" y="0"/>
			<point x="802" y="31"/>
			<point x="802" y="71" type="curve" smooth="yes"/>
		</contour>
	</outline>
</glyph>
<glyph name="four" format="2">
	<advance width="850"/>
	<unicode hex="0034"/>
	<outline>
		<contour>
			<point x="121" y="700" type="curve" smooth="yes"/>
			<point x="729" y="700" type="line" smooth="yes"/>
			<point x="770" y="700"/>
			<point x="800" y="670"/>
			<point x="800" y="629" type="curve" smooth="yes"/>
			<point x="800" y="284" type="line" smooth="yes"/>
			<point x="800" y="276"/>
			<point x="800" y="281"/>
			<point x="800" y="272" type="curve" smooth="yes"/>
			<point x="800" y="264" type="line"/>
			<point x="800" y="253"/>
			<point x="800" y="239"/>
			<point x="800" y="198" type="curve" smooth="yes"/>
			<point x="800" y="158" type="line" smooth="yes"/>
			<point x="800" y="117"/>
			<point x="800" y="85"/>
			<point x="800" y="51" type="curve"/>
			<point x="800" y="18" type="line" smooth="yes"/>
			<point x="800" y="8"/>
			<point x="794" y="0"/>
			<point x="781" y="0" type="curve" smooth="yes"/>
			<point x="750" y="0" type="line"/>
			<point x="729" y="0"/>
			<point x="683" y="0"/>
			<point x="642" y="0" type="curve" smooth="yes"/>
			<point x="602" y="0" type="line" smooth="yes"/>
			<point x="561" y="0"/>
			<point x="538" y="0"/>
			<point x="531" y="0" type="curve"/>
			<point x="526" y="0" type="line" smooth="yes"/>
			<point x="518" y="0"/>
			<point x="524" y="0"/>
			<point x="516" y="0" type="curve" smooth="yes"/>
			<point x="121" y="0" type="line" smooth="yes"/>
			<point x="80" y="0"/>
			<point x="50" y="30"/>
			<point x="50" y="71" type="curve" smooth="yes"/>
			<point x="50" y="629" type="line" smooth="yes"/>
			<point x="50" y="670"/>
			<point x="80" y="700"/>
		</contour>
		<contour>
			<point x="388" y="393" type="curve" smooth="yes"/>
			<point x="376" y="393" type="line" smooth="yes"/>
			<point x="368" y="393"/>
			<point x="365" y="393"/>
			<point x="361" y="393" type="curve" smooth="yes"/>
			<point x="361" y="393" type="line" smooth="yes"/>
			<point x="366" y="393"/>
			<point x="368" y="393"/>
			<point x="376" y="393" type="curve" smooth="yes"/>
			<point x="388" y="393" type="line" smooth="yes"/>
			<point x="396" y="393"/>
			<point x="398" y="393"/>
			<point x="403" y="393" type="curve" smooth="yes"/>
			<point x="403" y="393" type="line" smooth="yes"/>
			<point x="399" y="393"/>
			<point x="396" y="393"/>
		</contour>
	</outline>
</glyph>
<glyph name="six" format="2">
	<advance width="846"/>
	<unicode hex="0036"/>
	<outline>
		<contour>
			<point x="725" y="700" type="curve" smooth="yes"/>
			<point x="167" y="700" type="line" smooth="yes"/>
			<point x="99" y="700"/>
			<point x="50" y="651"/>
			<point x="50" y="583" type="curve" smooth="yes"/>
			<point x="50" y="117" type="line" smooth="yes"/>
			<point x="50" y="49"/>
			<point x="99" y="0"/>
			<point x="167" y="0" type="curve" smooth="yes"/>
			<point x="679" y="0" type="line" smooth="yes"/>
			<point x="747" y="0"/>
			<point x="796" y="49"/>
			<point x="796" y="117" type="curve" smooth="yes"/>
			<point x="796" y="359" type="line" smooth="yes"/>
			<point x="796" y="427"/>
			<point x="796" y="431"/>
			<point x="796" y="466" type="curve"/>
			<point x="796" y="476" type="line" smooth="yes"/>
			<point x="796" y="483"/>
			<point x="796" y="483"/>
			<point x="796" y="491" type="curve" smooth="yes"/>
			<point x="796" y="503" type="line" smooth="yes"/>
			<point x="796" y="511"/>
			<point x="796" y="511"/>
			<point x="796" y="518" type="curve" smooth="yes"/>
			<point x="796" y="528" type="line"/>
			<point x="796" y="549"/>
			<point x="796" y="548"/>
			<point x="796" y="589" type="curve" smooth="yes"/>
			<point x="796" y="629" type="line" smooth="yes"/>
			<point x="796" y="670"/>
			<point x="766" y="700"/>
		</contour>
		<contour>
			<point x="424" y="267" type="curve" smooth="yes"/>
			<point x="424" y="279" type="line" smooth="yes"/>
			<point x="424" y="287"/>
			<point x="424" y="291"/>
			<point x="424" y="294" type="curve" smooth="yes"/>
			<point x="424" y="294" type="line" smooth="yes"/>
			<point x="424" y="289"/>
			<point x="424" y="287"/>
			<point x="424" y="279" type="curve" smooth="yes"/>
			<point x="424" y="267" type="line" smooth="yes"/>
			<point x="424" y="259"/>
			<point x="424" y="255"/>
			<point x="424" y="252" type="curve" smooth="yes"/>
			<point x="424" y="252" type="line" smooth="yes"/>
			<point x="424" y="257"/>
			<point x="424" y="259"/>
		</contour>
	</outline>
</glyph>
<glyph name="seven" format="2">
	<advance width="852"/>
	<unicode hex="0037"/>
	<outline>
		<contour>
			<point x="802" y="71" type="curve" smooth="yes"/>
			<point x="802" y="629" type="line" smooth="yes"/>
			<point x="802" y="669"/>
			<point x="771" y="700"/>
			<point x="731" y="700" type="curve" smooth="yes"/>
			<point x="122" y="700" type="line" smooth="yes"/>
			<point x="81" y="700"/>
			<point x="50" y="669"/>
			<point x="50" y="629" type="curve" smooth="yes"/>
			<point x="50" y="529" type="line" smooth="yes"/>
			<point x="50" y="489"/>
			<point x="50" y="489"/>
			<point x="50" y="468" type="curve"/>
			<point x="50" y="458" type="line" smooth="yes"/>
			<point x="50" y="451"/>
			<point x="50" y="452"/>
			<point x="50" y="444" type="curve" smooth="yes"/>
			<point x="50" y="71" type="line" smooth="yes"/>
			<point x="50" y="31"/>
			<point x="81" y="0"/>
			<point x="121" y="0" type="curve" smooth="yes"/>
			<point x="731" y="0" type="line" smooth="yes"/>
			<point x="771" y="0"/>
			<point x="802" y="31"/>
		</contour>
	</outline>
</glyph>
<glyph name="eight" format="2">
	<advance width="852"/>
	<unicode hex="0038"/>
	<outline>
		<contour>
			<point x="167" y="700" type="curve" smooth="yes"/>
			<point x="687" y="700" type="line" smooth="yes"/>
			<point x="753" y="700"/>
			<point x="802" y="651"/>
			<point x="802" y="585" type="curve" smooth="yes"/>
			<point x="802" y="442" type="line" smooth="yes"/>
			<point x="802" y="402"/>
			<point x="802" y="397"/>
			<point x="802" y="381" type="curve"/>
			<point x="802" y="371" type="line" smooth="yes"/>
			<point x="802" y="363"/>
			<point x="802" y="365"/>
			<point x="802" y="357" type="curve" smooth="yes"/>
			<point x="802" y="343" type="line" smooth="yes"/>
			<point x="802" y="335"/>
			<point x="802" y="337"/>
			<point x="802" y="329" type="curve" smooth="yes"/>
			<point x="802" y="319" type="line"/>
			<point x="802" y="300"/>
			<point x="802" y="298"/>
			<point x="802" y="258" type="curve" smooth="yes"/>
			<point x="802" y="115" type="line" smooth="yes"/>
			<point x="802" y="49"/>
			<point x="751" y="0"/>
			<point x="686" y="0" type="curve" smooth="yes"/>
			<point x="167" y="0" type="line" smooth="yes"/>
			<point x="99" y="0"/>
			<point x="50" y="49"/>
			<point x="50" y="117" type="curve" smooth="yes"/>
			<point x="50" y="257" type="line" smooth="yes"/>
			<point x="50" y="298"/>
			<point x="50" y="305"/>
			<point x="50" y="318" type="curve"/>
			<point x="50" y="329" type="line" smooth="yes"/>
			<point x="50" y="337"/>
			<point x="50" y="336"/>
			<point x="50" y="344" type="curve" smooth="yes"/>
			<point x="50" y="356" type="line" smooth="yes"/>
			<point x="50" y="364"/>
			<point x="50" y="363"/>
			<point x="50" y="371" type="curve" smooth="yes"/>
			<point x="50" y="381" type="line"/>
			<point x="50" y="393"/>
			<point x="50" y="401"/>
			<point x="50" y="442" type="curve" smooth="yes"/>
			<point x="50" y="583" type="line" smooth="yes"/>
			<point x="50" y="651"/>
			<point x="99" y="700"/>
		</contour>
		<contour>
			<point x="446" y="260" type="curve" smooth="yes"/>
			<point x="446" y="260" type="line" smooth="yes"/>
			<point x="442" y="260"/>
			<point x="440" y="260"/>
			<point x="432" y="260" type="curve" smooth="yes"/>
			<point x="418" y="260" type="line" smooth="yes"/>
			<point x="410" y="260"/>
			<point x="412" y="260"/>
			<point x="404" y="260" type="curve" smooth="yes"/>
			<point x="404" y="260" type="line" smooth="yes"/>
			<point x="407" y="260"/>
			<point x="410" y="260"/>
			<point x="418" y="260" type="curve" smooth="yes"/>
			<point x="432" y="260" type="line" smooth="yes"/>
			<point x="440" y="260"/>
			<point x="439" y="260"/>
		</contour>
		<contour>
			<point x="446" y="439" type="curve" smooth="yes"/>
			<point x="446" y="439" type="line" smooth="yes"/>
			<point x="441" y="439"/>
			<point x="440" y="439"/>
			<point x="432" y="439" type="curve" smooth="yes"/>
			<point x="418" y="439" type="line" smooth="yes"/>
			<point x="410" y="439"/>
			<point x="411" y="439"/>
			<point x="404" y="439" type="curve" smooth="yes"/>
			<point x="404" y="439" type="line" smooth="yes"/>
			<point x="407" y="439"/>
			<point x="410" y="439"/>
			<point x="418" y="439" type="curve" smooth="yes"/>
			<point x="432" y="439" type="line" smooth="yes"/>
			<point x="440" y="439"/>
			<point x="443" y="439"/>
		</contour>
	</outline>
</glyph>
<glyph name="nine" format="2">
	<advance width="852"/>
	<unicode hex="0039"/>
	<outline>
		<contour>
			<point x="802" y="629" type="line" smooth="yes"/>
			<point x="802" y="669"/>
			<point x="771" y="700"/>
			<point x="731" y="700" type="curve" smooth="yes"/>
			<point x="122" y="700" type="line" smooth="yes"/>
			<point x="81" y="700"/>
			<point x="50" y="669"/>
			<point x="50" y="629" type="curve" smooth="yes"/>
			<point x="50" y="295" type="line" smooth="yes"/>
			<point x="50" y="255"/>
			<point x="50" y="252"/>
			<point x="50" y="234" type="curve"/>
			<point x="50" y="224" type="line" smooth="yes"/>
			<point x="50" y="217"/>
			<point x="50" y="218"/>
			<point x="50" y="210" type="curve" smooth="yes"/>
			<point x="50" y="196" type="line" smooth="yes"/>
			<point x="50" y="188"/>
			<point x="50" y="189"/>
			<point x="50" y="182" type="curve" smooth="yes"/>
			<point x="50" y="172" type="line"/>
			<point x="50" y="155"/>
			<point x="50" y="151"/>
			<point x="50" y="111" type="curve" smooth="yes"/>
			<point x="50" y="64" type="line" smooth="yes"/>
			<point x="50" y="24"/>
			<point x="81" y="0"/>
			<point x="122" y="0" type="curve" smooth="yes"/>
			<point x="731" y="0" type="line" smooth="yes"/>
			<point x="771" y="0"/>
			<point x="802" y="31"/>
			<point x="802" y="71" type="curve" smooth="yes"/>
		</contour>
		<contour>
			<point x="419" y="406" type="curve" smooth="yes"/>
			<point x="419" y="406" type="line" smooth="yes"/>
			<point x="419" y="410"/>
			<point x="419" y="412"/>
			<point x="419" y="420" type="curve" smooth="yes"/>
			<point x="419" y="434" type="line" smooth="yes"/>
			<point x="419" y="443"/>
			<point x="419" y="446"/>
			<point x="419" y="448" type="curve" smooth="yes"/>
			<point x="419" y="448" type="line" smooth="yes"/>
			<point x="419" y="441"/>
			<point x="419" y="443"/>
			<point x="419" y="434" type="curve" smooth="yes"/>
			<point x="419" y="420" type="line" smooth="yes"/>
			<point x="419" y="412"/>
			<point x="419" y="415"/>
		</contour>
	</outline>
</glyph>
<glyph name="semicolon" format="2">
	<advance width="210"/>
	<unicode hex="003B"/>
	<outline>
		<contour>
			<point x="50" y="86" type="curve" smooth="yes"/>
			<point x="50" y="-124" type="line" smooth="yes"/>
			<point x="50" y="-132"/>
			<point x="57" y="-139"/>
			<point x="65" y="-139" type="curve" smooth="yes"/>
			<point x="145" y="-139" type="line" smooth="yes"/>
			<point x="153" y="-139"/>
			<point x="160" y="-132"/>
			<point x="160" y="-124" type="curve" smooth="yes"/>
			<point x="160" y="86" type="line" smooth="yes"/>
			<point x="160" y="94"/>
			<point x="153" y="101"/>
			<point x="145" y="101" type="curve" smooth="yes"/>
			<point x="65" y="101" type="line" smooth="yes"/>
			<point x="57" y="101"/>
			<point x="50" y="94"/>
		</contour>
		<contour>
			<point x="50" y="485" type="curve" smooth="yes"/>
			<point x="50" y="415" type="line" smooth="yes"/>
			<point x="50" y="407"/>
			<point x="57" y="400"/>
			<point x="65" y="400" type="curve" smooth="yes"/>
			<point x="145" y="400" type="line" smooth="yes"/>
			<point x="153" y="400"/>
			<point x="160" y="407"/>
			<point x="160" y="415" type="curve" smooth="yes"/>
			<point x="160" y="485" type="line" smooth="yes"/>
			<point x="160" y="493"/>
			<point x="153" y="500"/>
			<point x="145" y="500" type="curve" smooth="yes"/>
			<point x="65" y="500" type="line" smooth="yes"/>
			<point x="57" y="500"/>
			<point x="50" y="493"/>
		</contour>
	</outline>
</glyph>
<glyph name="A" format="2">
	<advance width="852"/>
	<unicode hex="0041"/>
	<outline>
		<contour>
			<point x="50" y="70" type="curve" smooth="yes"/>
			<point x="50" y="629" type="line" smooth="yes"/>
			<point x="50" y="668"/>
			<point x="79" y="700"/>
			<point x="119" y="700" type="curve" smooth="yes"/>
			<point x="730" y="700" type="line" smooth="yes"/>
			<point x="770" y="700"/>
			<point x="802" y="668"/>
			<point x="802" y="629" type="curve" smooth="yes"/>
			<point x="802" y="69" type="line" smooth="yes"/>
			<point x="802" y="29"/>
			<point x="770" y="0"/>
			<point x="730" y="0" type="curve" smooth="yes"/>
			<point x="686" y="0" type="line" smooth="yes"/>
			<point x="646" y="0"/>
			<point x="619" y="-35"/>
			<point x="619" y="0" type="curve"/>
			<point x="616" y="0" type="line"/>
			<point x="613" y="0"/>
			<point x="610" y="0"/>
			<point x="602" y="0" type="curve" smooth="yes"/>
			<point x="250" y="0" type="line" smooth="yes"/>
			<point x="242" y="0"/>
			<point x="242" y="0"/>
			<point x="236" y="0" type="curve"/>
			<point x="233" y="0" type="line"/>
			<point x="223" y="0"/>
			<point x="205" y="0"/>
			<point x="166" y="0" type="curve" smooth="yes"/>
			<point x="119" y="0" type="line" smooth="yes"/>
			<point x="79" y="0"/>
			<point x="50" y="31"/>
		</contour>
		<contour>
			<point x="416" y="269" type="curve" smooth="yes"/>
			<point x="416" y="269" type="line" smooth="yes"/>
			<point x="416" y="275"/>
			<point x="416" y="274"/>
			<point x="416" y="283" type="curve" smooth="yes"/>
			<point x="416" y="297" type="line" smooth="yes"/>
			<point x="416" y="305"/>
			<point x="416" y="301"/>
			<point x="416" y="311" type="curve" smooth="yes"/>
			<point x="416" y="311" type="line" smooth="yes"/>
			<point x="416" y="305"/>
			<point x="416" y="305"/>
			<point x="416" y="297" type="curve" smooth="yes"/>
			<point x="416" y="283" type="line" smooth="yes"/>
			<point x="416" y="274"/>
			<point x="416" y="275"/>
		</contour>
	</outline>
</glyph>
<glyph name="B" format="2">
	<advance width="852"/>
	<unicode hex="0042"/>
	<outline>
		<contour>
			<point x="121" y="700" type="curve" smooth="yes"/>
			<point x="687" y="700" type="line" smooth="yes"/>
			<point x="753" y="700"/>
			<point x="802" y="651"/>
			<point x="802" y="585" type="curve" smooth="yes"/>
			<point x="802" y="442" type="line" smooth="yes"/>
			<point x="802" y="402"/>
			<point x="802" y="385"/>
			<point x="802" y="371" type="curve"/>
			<point x="802" y="365" type="line"/>
			<point x="802" y="360"/>
			<point x="802" y="365"/>
			<point x="802" y="357" type="curve" smooth="yes"/>
			<point x="802" y="343" type="line" smooth="yes"/>
			<point x="802" y="335"/>
			<point x="802" y="338"/>
			<point x="802" y="335" type="curve"/>
			<point x="802" y="329" type="line"/>
			<point x="802" y="304"/>
			<point x="802" y="298"/>
			<point x="802" y="258" type="curve"/>
			<point x="800" y="115" type="line" smooth="yes"/>
			<point x="799" y="49"/>
			<point x="751" y="0"/>
			<point x="686" y="0" type="curve" smooth="yes"/>
			<point x="121" y="0" type="line" smooth="yes"/>
			<point x="81" y="0"/>
			<point x="50" y="31"/>
			<point x="50" y="71" type="curve" smooth="yes"/>
			<point x="50" y="629" type="line" smooth="yes"/>
			<point x="50" y="669"/>
			<point x="81" y="700"/>
		</contour>
		<contour>
			<point x="424" y="329" type="curve" smooth="yes"/>
			<point x="424" y="329" type="line" smooth="yes"/>
			<point x="424" y="320"/>
			<point x="424" y="323"/>
			<point x="424" y="315" type="curve" smooth="yes"/>
			<point x="424" y="301" type="line" smooth="yes"/>
			<point x="424" y="293"/>
			<point x="424" y="291"/>
			<point x="424" y="287" type="curve" smooth="yes"/>
			<point x="424" y="287" type="line" smooth="yes"/>
			<point x="424" y="291"/>
			<point x="424" y="293"/>
			<point x="424" y="301" type="curve" smooth="yes"/>
			<point x="424" y="315" type="line" smooth="yes"/>
			<point x="424" y="323"/>
			<point x="424" y="323"/>
		</contour>
		<contour>
			<point x="424" y="413" type="curve" smooth="yes"/>
			<point x="424" y="413" type="line" smooth="yes"/>
			<point x="424" y="406"/>
			<point x="424" y="407"/>
			<point x="424" y="399" type="curve" smooth="yes"/>
			<point x="424" y="385" type="line" smooth="yes"/>
			<point x="424" y="377"/>
			<point x="424" y="377"/>
			<point x="424" y="371" type="curve" smooth="yes"/>
			<point x="424" y="371" type="line" smooth="yes"/>
			<point x="424" y="377"/>
			<point x="424" y="377"/>
			<point x="424" y="385" type="curve" smooth="yes"/>
			<point x="424" y="399" type="line" smooth="yes"/>
			<point x="424" y="407"/>
			<point x="424" y="405"/>
		</contour>
	</outline>
</glyph>
<glyph name="C" format="2">
	<advance width="852"/>
	<unicode hex="0043"/>
	<outline>
		<contour>
			<point x="50" y="629" type="curve" smooth="yes"/>
			<point x="50" y="71" type="line" smooth="yes"/>
			<point x="50" y="31"/>
			<point x="81" y="0"/>
			<point x="121" y="0" type="curve" smooth="yes"/>
			<point x="730" y="0" type="line" smooth="yes"/>
			<point x="771" y="0"/>
			<point x="802" y="31"/>
			<point x="802" y="71" type="curve" smooth="yes"/>
			<point x="802" y="258" type="line" smooth="yes"/>
			<point x="802" y="298"/>
			<point x="802" y="287"/>
			<point x="802" y="329" type="curve"/>
			<point x="802" y="339" type="line"/>
			<point x="802" y="335"/>
			<point x="802" y="335"/>
			<point x="802" y="343" type="curve"/>
			<point x="802" y="357" type="line"/>
			<point x="802" y="365"/>
			<point x="802" y="365"/>
			<point x="802" y="361" type="curve"/>
			<point x="802" y="371" type="line"/>
			<point x="802" y="411"/>
			<point x="802" y="402"/>
			<point x="802" y="442" type="curve" smooth="yes"/>
			<point x="802" y="629" type="line" smooth="yes"/>
			<point x="802" y="669"/>
			<point x="771" y="700"/>
			<point x="730" y="700" type="curve" smooth="yes"/>
			<point x="121" y="700" type="line" smooth="yes"/>
			<point x="81" y="700"/>
			<point x="50" y="669"/>
		</contour>
	</outline>
</glyph>
<glyph name="D" format="2">
	<advance width="851"/>
	<unicode hex="0044"/>
	<outline>
		<contour>
			<point x="50" y="72" type="line"/>
			<point x="50" y="31"/>
			<point x="81" y="0"/>
			<point x="122" y="0" type="curve"/>
			<point x="688" y="0" type="line"/>
			<point x="753" y="0"/>
			<point x="801" y="48"/>
			<point x="801" y="115" type="curve"/>
			<point x="801" y="585" type="line"/>
			<point x="801" y="651"/>
			<point x="753" y="700"/>
			<point x="688" y="700" type="curve"/>
			<point x="122" y="700" type="line"/>
			<point x="81" y="700"/>
			<point x="50" y="669"/>
			<point x="50" y="629" type="curve"/>
		</contour>
		<contour>
			<point x="439" y="372" type="curve"/>
			<point x="439" y="372" type="line"/>
			<point x="439" y="368"/>
			<point x="439" y="366"/>
			<point x="439" y="358" type="curve"/>
			<point x="439" y="343" type="line"/>
			<point x="439" y="334"/>
			<point x="439" y="333"/>
			<point x="439" y="329" type="curve"/>
			<point x="439" y="329" type="line"/>
			<point x="439" y="333"/>
			<point x="439" y="334"/>
			<point x="439" y="343" type="curve"/>
			<point x="439" y="358" type="line"/>
			<point x="439" y="366"/>
			<point x="439" y="367"/>
		</contour>
	</outline>
</glyph>
<glyph name="E" format="2">
	<advance width="852"/>
	<unicode hex="0045"/>
	<outline>
		<contour>
			<point x="50" y="629" type="curve" smooth="yes"/>
			<point x="50" y="71" type="line" smooth="yes"/>
			<point x="50" y="31"/>
			<point x="81" y="0"/>
			<point x="121" y="0" type="curve" smooth="yes"/>
			<point x="730" y="0" type="line" smooth="yes"/>
			<point x="771" y="0"/>
			<point x="802" y="31"/>
			<point x="802" y="71" type="curve" smooth="yes"/>
			<point x="802" y="111" type="line" smooth="yes"/>
			<point x="802" y="151"/>
			<point x="802" y="164"/>
			<point x="802" y="182" type="curve"/>
			<point x="802" y="192" type="line"/>
			<point x="802" y="197"/>
			<point x="802" y="188"/>
			<point x="802" y="196" type="curve" smooth="yes"/>
			<point x="802" y="210" type="line" smooth="yes"/>
			<point x="802" y="218"/>
			<point x="802" y="208"/>
			<point x="802" y="214" type="curve"/>
			<point x="802" y="224" type="line"/>
			<point x="802" y="238"/>
			<point x="802" y="255"/>
			<point x="802" y="295" type="curve" smooth="yes"/>
			<point x="802" y="405" type="line" smooth="yes"/>
			<point x="802" y="445"/>
			<point x="802" y="454"/>
			<point x="802" y="476" type="curve"/>
			<point x="802" y="481" type="line"/>
			<point x="802" y="486"/>
			<point x="802" y="482"/>
			<point x="802" y="490" type="curve" smooth="yes"/>
			<point x="802" y="504" type="line" smooth="yes"/>
			<point x="802" y="512"/>
			<point x="802" y="511"/>
			<point x="802" y="514" type="curve"/>
			<point x="802" y="518" type="line"/>
			<point x="802" y="530"/>
			<point x="802" y="549"/>
			<point x="802" y="589" type="curve" smooth="yes"/>
			<point x="802" y="629" type="line" smooth="yes"/>
			<point x="802" y="669"/>
			<point x="771" y="700"/>
			<point x="730" y="700" type="curve" smooth="yes"/>
			<point x="121" y="700" type="line" smooth="yes"/>
			<point x="81" y="700"/>
			<point x="50" y="669"/>
		</contour>
	</outline>
</glyph>
<glyph name="F" format="2">
	<advance width="852"/>
	<unicode hex="0046"/>
	<outline>
		<contour>
			<point x="50" y="629" type="curve" smooth="yes"/>
			<point x="50" y="71" type="line" smooth="yes"/>
			<point x="50" y="31"/>
			<point x="81" y="0"/>
			<point x="121" y="0" type="curve" smooth="yes"/>
			<point x="161" y="0" type="line" smooth="yes"/>
			<point x="201" y="0"/>
			<point x="217" y="0"/>
			<point x="230" y="0" type="curve"/>
			<point x="232" y="0" type="line"/>
			<point x="238" y="0"/>
			<point x="238" y="0"/>
			<point x="246" y="0" type="curve" smooth="yes"/>
			<point x="730" y="0" type="line" smooth="yes"/>
			<point x="771" y="0"/>
			<point x="802" y="31"/>
			<point x="802" y="71" type="curve" smooth="yes"/>
			<point x="802" y="301" type="line" smooth="yes"/>
			<point x="802" y="342"/>
			<point x="802" y="352"/>
			<point x="802" y="372" type="curve"/>
			<point x="802" y="376" type="line" smooth="yes"/>
			<point x="802" y="385"/>
			<point x="802" y="378"/>
			<point x="802" y="386" type="curve" smooth="yes"/>
			<point x="802" y="400" type="line" smooth="yes"/>
			<point x="802" y="409"/>
			<point x="802" y="401"/>
			<point x="802" y="410" type="curve" smooth="yes"/>
			<point x="802" y="414" type="line"/>
			<point x="802" y="433"/>
			<point x="802" y="445"/>
			<point x="802" y="486" type="curve" smooth="yes"/>
			<point x="802" y="629" type="line" smooth="yes"/>
			<point x="802" y="669"/>
			<point x="771" y="700"/>
			<point x="730" y="700" type="curve" smooth="yes"/>
			<point x="121" y="700" type="line" smooth="yes"/>
			<point x="81" y="700"/>
			<point x="50" y="669"/>
		</contour>
	</outline>
</glyph>
<glyph name="G" format="2">
	<advance width="852"/>
	<unicode hex="0047"/>
	<outline>
		<contour>
			<point x="50" y="585" type="curve" smooth="yes"/>
			<point x="50" y="115" type="line" smooth="yes"/>
			<point x="50" y="49"/>
			<point x="99" y="0"/>
			<point x="165" y="0" type="curve" smooth="yes"/>
			<point x="687" y="0" type="line" smooth="yes"/>
			<point x="753" y="0"/>
			<point x="802" y="49"/>
			<point x="802" y="115" type="curve" smooth="yes"/>
			<point x="802" y="237" type="line" smooth="yes"/>
			<point x="802" y="277"/>
			<point x="802" y="233"/>
			<point x="802" y="274" type="curve"/>
			<point x="802" y="280" type="line"/>
			<point x="802" y="288"/>
			<point x="802" y="289"/>
			<point x="802" y="294" type="curve"/>
			<point x="802" y="295" type="line"/>
			<point x="802" y="302"/>
			<point x="802" y="293"/>
			<point x="802" y="296" type="curve"/>
			<point x="802" y="297" type="line"/>
			<point x="802" y="298"/>
			<point x="802" y="296"/>
			<point x="802" y="299" type="curve"/>
			<point x="802" y="300" type="line"/>
			<point x="802" y="303"/>
			<point x="802" y="296"/>
			<point x="802" y="304" type="curve"/>
			<point x="802" y="308" type="line" smooth="yes"/>
			<point x="802" y="317"/>
			<point x="802" y="313"/>
			<point x="802" y="321" type="curve" smooth="yes"/>
			<point x="802" y="336" type="line" smooth="yes"/>
			<point x="802" y="344"/>
			<point x="802" y="342"/>
			<point x="802" y="347" type="curve"/>
			<point x="802" y="350" type="line"/>
			<point x="802" y="373"/>
			<point x="802" y="381"/>
			<point x="802" y="421" type="curve" smooth="yes"/>
			<point x="802" y="629" type="line" smooth="yes"/>
			<point x="802" y="669"/>
			<point x="771" y="700"/>
			<point x="730" y="700" type="curve" smooth="yes"/>
			<point x="165" y="700" type="line" smooth="yes"/>
			<point x="99" y="700"/>
			<point x="50" y="651"/>
		</contour>
	</outline>
</glyph>
<glyph name="H" format="2">
	<advance width="852"/>
	<unicode hex="0048"/>
	<outline>
		<contour>
			<point x="50" y="629" type="curve" smooth="yes"/>
			<point x="50" y="71" type="line" smooth="yes"/>
			<point x="50" y="31"/>
			<point x="81" y="0"/>
			<point x="121" y="0" type="curve" smooth="yes"/>
			<point x="334" y="0" type="line" smooth="yes"/>
			<point x="375" y="0"/>
			<point x="391" y="0"/>
			<point x="403" y="0" type="curve"/>
			<point x="406" y="0" type="line"/>
			<point x="411" y="0"/>
			<point x="411" y="0"/>
			<point x="420" y="0" type="curve" smooth="yes"/>
			<point x="434" y="0" type="line" smooth="yes"/>
			<point x="442" y="0"/>
			<point x="443" y="0"/>
			<point x="448" y="0" type="curve"/>
			<point x="451" y="0" type="line"/>
			<point x="464" y="0"/>
			<point x="478" y="0"/>
			<point x="519" y="0" type="curve" smooth="yes"/>
			<point x="730" y="0" type="line" smooth="yes"/>
			<point x="771" y="0"/>
			<point x="802" y="31"/>
			<point x="802" y="71" type="curve" smooth="yes"/>
			<point x="802" y="629" type="line" smooth="yes"/>
			<point x="802" y="669"/>
			<point x="771" y="700"/>
			<point x="730" y="700" type="curve" smooth="yes"/>
			<point x="519" y="700" type="line" smooth="yes"/>
			<point x="478" y="700"/>
			<point x="477" y="700"/>
			<point x="458" y="700" type="curve"/>
			<point x="448" y="700" type="line" smooth="yes"/>
			<point x="440" y="700"/>
			<point x="442" y="700"/>
			<point x="434" y="700" type="curve" smooth="yes"/>
			<point x="420" y="700" type="line" smooth="yes"/>
			<point x="411" y="700"/>
			<point x="414" y="700"/>
			<point x="406" y="700" type="curve" smooth="yes"/>
			<point x="400" y="700" type="line"/>
			<point x="385" y="700"/>
			<point x="375" y="700"/>
			<point x="334" y="700" type="curve" smooth="yes"/>
			<point x="121" y="700" type="line" smooth="yes"/>
			<point x="81" y="700"/>
			<point x="50" y="669"/>
		</contour>
	</outline>
</glyph>
<glyph name="I" format="2">
	<advance width="852"/>
	<unicode hex="0049"/>
	<outline>
		<contour>
			<point x="50" y="629" type="curve" smooth="yes"/>
			<point x="50" y="72" type="line" smooth="yes"/>
			<point x="50" y="31"/>
			<point x="81" y="0"/>
			<point x="122" y="0" type="curve" smooth="yes"/>
			<point x="730" y="0" type="line" smooth="yes"/>
			<point x="771" y="0"/>
			<point x="802" y="31"/>
			<point x="802" y="72" type="curve" smooth="yes"/>
			<point x="802" y="629" type="line" smooth="yes"/>
			<point x="802" y="669"/>
			<point x="771" y="700"/>
			<point x="730" y="700" type="curve" smooth="yes"/>
			<point x="122" y="700" type="line" smooth="yes"/>
			<point x="81" y="700"/>
			<point x="50" y="669"/>
		</contour>
	</outline>
</glyph>
<glyph name="K" format="2">
	<advance width="852"/>
	<unicode hex="004B"/>
	<outline>
		<contour>
			<point x="50" y="629" type="curve" smooth="yes"/>
			<point x="50" y="71" type="line" smooth="yes"/>
			<point x="50" y="31"/>
			<point x="81" y="0"/>
			<point x="121" y="0" type="curve" smooth="yes"/>
			<point x="161" y="0" type="line" smooth="yes"/>
			<point x="201" y="0"/>
			<point x="210" y="0"/>
			<point x="228" y="0" type="curve"/>
			<point x="232" y="0" type="line" smooth="yes"/>
			<point x="239" y="0"/>
			<point x="238" y="0"/>
			<point x="246" y="0" type="curve" smooth="yes"/>
			<point x="260" y="0" type="line" smooth="yes"/>
			<point x="268" y="0"/>
			<point x="267" y="0"/>
			<point x="274" y="0" type="curve" smooth="yes"/>
			<point x="278" y="0" type="line"/>
			<point x="289" y="0"/>
			<point x="305" y="0"/>
			<point x="345" y="0" type="curve" smooth="yes"/>
			<point x="730" y="0" type="line" smooth="yes"/>
			<point x="771" y="0"/>
			<point x="802" y="31"/>
			<point x="802" y="71" type="curve" smooth="yes"/>
			<point x="802" y="258" type="line" smooth="yes"/>
			<point x="802" y="298"/>
			<point x="802" y="292"/>
			<point x="802" y="324" type="curve"/>
			<point x="802" y="329" type="line" smooth="yes"/>
			<point x="802" y="337"/>
			<point x="802" y="335"/>
			<point x="802" y="343" type="curve" smooth="yes"/>
			<point x="802" y="357" type="line" smooth="yes"/>
			<point x="802" y="365"/>
			<point x="802" y="363"/>
			<point x="802" y="371" type="curve" smooth="yes"/>
			<point x="802" y="376" type="line"/>
			<point x="802" y="397"/>
			<point x="802" y="402"/>
			<point x="802" y="442" type="curve" smooth="yes"/>
			<point x="802" y="629" type="line" smooth="yes"/>
			<point x="802" y="669"/>
			<point x="771" y="700"/>
			<point x="730" y="700" type="curve" smooth="yes"/>
			<point x="345" y="700" type="line" smooth="yes"/>
			<point x="305" y="700"/>
			<point x="299" y="700"/>
			<point x="280" y="700" type="curve"/>
			<point x="274" y="700" type="line" smooth="yes"/>
			<point x="266" y="700"/>
			<point x="268" y="700"/>
			<point x="260" y="700" type="curve" smooth="yes"/>
			<point x="246" y="700" type="line" smooth="yes"/>
			<point x="238" y="700"/>
			<point x="239" y="700"/>
			<point x="232" y="700" type="curve" smooth="yes"/>
			<point x="227" y="700" type="line"/>
			<point x="208" y="700"/>
			<point x="201" y="700"/>
			<point x="161" y="700" type="curve" smooth="yes"/>
			<point x="121" y="700" type="line" smooth="yes"/>
			<point x="81" y="700"/>
			<point x="50" y="669"/>
		</contour>
	</outline>
</glyph>
<glyph name="L" format="2">
	<advance width="852"/>
	<unicode hex="004C"/>
	<outline>
		<contour>
			<point x="50" y="629" type="curve" smooth="yes"/>
			<point x="50" y="71" type="line" smooth="yes"/>
			<point x="50" y="31"/>
			<point x="81" y="0"/>
			<point x="121" y="0" type="curve" smooth="yes"/>
			<point x="730" y="0" type="line" smooth="yes"/>
			<point x="771" y="0"/>
			<point x="802" y="31"/>
			<point x="802" y="71" type="curve" smooth="yes"/>
			<point x="802" y="171" type="line" smooth="yes"/>
			<point x="802" y="211"/>
			<point x="802" y="216"/>
			<point x="802" y="242" type="curve"/>
			<point x="802" y="247" type="line" smooth="yes"/>
			<point x="802" y="254"/>
			<point x="802" y="253"/>
			<point x="802" y="261" type="curve" smooth="yes"/>
			<point x="802" y="629" type="line" smooth="yes"/>
			<point x="802" y="669"/>
			<point x="771" y="700"/>
			<point x="731" y="700" type="curve" smooth="yes"/>
			<point x="121" y="700" type="line" smooth="yes"/>
			<point x="81" y="700"/>
			<point x="50" y="669"/>
		</contour>
	</outline>
</glyph>
<glyph name="M" format="2">
	<advance width="852"/>
	<unicode hex="004D"/>
	<outline>
		<contour>
			<point x="50" y="71" type="curve" smooth="yes"/>
			<point x="50" y="628" type="line" smooth="yes"/>
			<point x="50" y="669"/>
			<point x="81" y="700"/>
			<point x="121" y="700" type="curve" smooth="yes"/>
			<point x="334" y="700" type="line" smooth="yes"/>
			<point x="374" y="700"/>
			<point x="385" y="700"/>
			<point x="400" y="700" type="curve"/>
			<point x="405" y="700" type="line" smooth="yes"/>
			<point x="413" y="700"/>
			<point x="411" y="700"/>
			<point x="419" y="700" type="curve" smooth="yes"/>
			<point x="433" y="700" type="line" smooth="yes"/>
			<point x="441" y="700"/>
			<point x="439" y="700"/>
			<point x="447" y="700" type="curve" smooth="yes"/>
			<point x="453" y="700" type="line"/>
			<point x="472" y="700"/>
			<point x="478" y="700"/>
			<point x="519" y="700" type="curve" smooth="yes"/>
			<point x="730" y="700" type="line" smooth="yes"/>
			<point x="771" y="700"/>
			<point x="802" y="669"/>
			<point x="802" y="628" type="curve" smooth="yes"/>
			<point x="802" y="71" type="line" smooth="yes"/>
			<point x="802" y="31"/>
			<point x="771" y="0"/>
			<point x="730" y="0" type="curve" smooth="yes"/>
			<point x="691" y="0" type="line" smooth="yes"/>
			<point x="650" y="0"/>
			<point x="641" y="0"/>
			<point x="624" y="0" type="curve"/>
			<point x="619" y="0" type="line" smooth="yes"/>
			<point x="609" y="0"/>
			<point x="614" y="0"/>
			<point x="605" y="0" type="curve" smooth="yes"/>
			<point x="591" y="0" type="line" smooth="yes"/>
			<point x="583" y="0"/>
			<point x="585" y="0"/>
			<point x="577" y="0" type="curve" smooth="yes"/>
			<point x="571" y="0" type="line"/>
			<point x="554" y="0"/>
			<point x="547" y="0"/>
			<point x="506" y="0" type="curve" smooth="yes"/>
			<point x="345" y="0" type="line" smooth="yes"/>
			<point x="305" y="0"/>
			<point x="298" y="0"/>
			<point x="279" y="0" type="curve"/>
			<point x="274" y="0" type="line" smooth="yes"/>
			<point x="264" y="0"/>
			<point x="269" y="0"/>
			<point x="260" y="0" type="curve" smooth="yes"/>
			<point x="246" y="0" type="line" smooth="yes"/>
			<point x="238" y="0"/>
			<point x="242" y="0"/>
			<point x="232" y="0" type="curve" smooth="yes"/>
			<point x="227" y="0" type="line"/>
			<point x="212" y="0"/>
			<point x="201" y="0"/>
			<point x="161" y="0" type="curve" smooth="yes"/>
			<point x="121" y="0" type="line" smooth="yes"/>
			<point x="81" y="0"/>
			<point x="50" y="31"/>
		</contour>
	</outline>
</glyph>
<glyph name="O" format="2">
	<advance width="852"/>
	<unicode hex="004F"/>
	<outline>
		<contour>
			<point x="50" y="584" type="curve" smooth="yes"/>
			<point x="50" y="115" type="line" smooth="yes"/>
			<point x="50" y="49"/>
			<point x="99" y="0"/>
			<point x="165" y="0" type="curve" smooth="yes"/>
			<point x="686" y="0" type="line" smooth="yes"/>
			<point x="752" y="0"/>
			<point x="802" y="49"/>
			<point x="802" y="115" type="curve" smooth="yes"/>
			<point x="802" y="584" type="line" smooth="yes"/>
			<point x="802" y="650"/>
			<point x="752" y="700"/>
			<point x="686" y="700" type="curve" smooth="yes"/>
			<point x="165" y="700" type="line" smooth="yes"/>
			<point x="99" y="700"/>
			<point x="50" y="650"/>
		</contour>
		<contour>
			<point x="420" y="329" type="curve" smooth="yes"/>
			<point x="434" y="329" type="line" smooth="yes"/>
			<point x="442" y="329"/>
			<point x="443" y="329"/>
			<point x="447" y="329" type="curve" smooth="yes"/>
			<point x="447" y="329" type="line" smooth="yes"/>
			<point x="443" y="329"/>
			<point x="442" y="329"/>
			<point x="434" y="329" type="curve" smooth="yes"/>
			<point x="420" y="329" type="line" smooth="yes"/>
			<point x="412" y="329"/>
			<point x="410" y="329"/>
			<point x="405" y="329" type="curve" smooth="yes"/>
			<point x="405" y="329" type="line" smooth="yes"/>
			<point x="412" y="329"/>
			<point x="412" y="329"/>
		</contour>
	</outline>
</glyph>
<glyph name="P" format="2">
	<advance width="852"/>
	<unicode hex="0050"/>
	<outline>
		<contour>
			<point x="50" y="629" type="curve" smooth="yes"/>
			<point x="50" y="71" type="line" smooth="yes"/>
			<point x="50" y="31"/>
			<point x="81" y="0"/>
			<point x="121" y="0" type="curve" smooth="yes"/>
			<point x="161" y="0" type="line" smooth="yes"/>
			<point x="201" y="0"/>
			<point x="226" y="0"/>
			<point x="232" y="0" type="curve"/>
			<point x="235" y="0" type="line" smooth="yes"/>
			<point x="243" y="0"/>
			<point x="238" y="0"/>
			<point x="246" y="0" type="curve" smooth="yes"/>
			<point x="687" y="0" type="line" smooth="yes"/>
			<point x="753" y="0"/>
			<point x="802" y="49"/>
			<point x="802" y="115" type="curve" smooth="yes"/>
			<point x="802" y="585" type="line" smooth="yes"/>
			<point x="802" y="651"/>
			<point x="753" y="700"/>
			<point x="687" y="700" type="curve" smooth="yes"/>
			<point x="121" y="700" type="line" smooth="yes"/>
			<point x="81" y="700"/>
			<point x="50" y="669"/>
		</contour>
		<contour>
			<point x="426" y="372" type="curve" smooth="yes"/>
			<point x="426" y="372" type="line" smooth="yes"/>
			<point x="426" y="376"/>
			<point x="426" y="378"/>
			<point x="426" y="386" type="curve" smooth="yes"/>
			<point x="426" y="400" type="line" smooth="yes"/>
			<point x="426" y="409"/>
			<point x="426" y="408"/>
			<point x="426" y="414" type="curve" smooth="yes"/>
			<point x="426" y="414" type="line" smooth="yes"/>
			<point x="426" y="408"/>
			<point x="426" y="409"/>
			<point x="426" y="400" type="curve" smooth="yes"/>
			<point x="426" y="386" type="line" smooth="yes"/>
			<point x="426" y="378"/>
			<point x="426" y="377"/>
		</contour>
	</outline>
</glyph>
<glyph name="Q" format="2">
	<advance width="852"/>
	<unicode hex="0051"/>
	<outline>
		<contour>
			<point x="51" y="587" type="curve" smooth="yes"/>
			<point x="50" y="115" type="line" smooth="yes"/>
			<point x="50" y="48"/>
			<point x="99" y="0"/>
			<point x="165" y="0" type="curve" smooth="yes"/>
			<point x="217" y="0" type="line" smooth="yes"/>
			<point x="226" y="0"/>
			<point x="223" y="0"/>
			<point x="231" y="0" type="curve" smooth="yes"/>
			<point x="232" y="0" type="line" smooth="yes"/>
			<point x="240" y="0"/>
			<point x="238" y="0"/>
			<point x="246" y="0" type="curve" smooth="yes"/>
			<point x="788" y="0" type="line" smooth="yes"/>
			<point x="797" y="0"/>
			<point x="802" y="6"/>
			<point x="802" y="14" type="curve" smooth="yes"/>
			<point x="802" y="168" type="line" smooth="yes"/>
			<point x="802" y="177"/>
			<point x="802" y="173"/>
			<point x="802" y="182" type="curve" smooth="yes"/>
			<point x="802" y="192" type="line" smooth="yes"/>
			<point x="802" y="200"/>
			<point x="802" y="198"/>
			<point x="802" y="206" type="curve" smooth="yes"/>
			<point x="802" y="586" type="line" smooth="yes"/>
			<point x="802" y="651"/>
			<point x="753" y="700"/>
			<point x="687" y="700" type="curve" smooth="yes"/>
			<point x="165" y="700" type="line" smooth="yes"/>
			<point x="99" y="700"/>
			<point x="51" y="654"/>
		</contour>
		<contour>
			<point x="407" y="282" type="curve" smooth="yes"/>
			<point x="407" y="282" type="line" smooth="yes"/>
			<point x="407" y="278"/>
			<point x="407" y="276"/>
			<point x="407" y="268" type="curve" smooth="yes"/>
			<point x="407" y="254" type="line" smooth="yes"/>
			<point x="407" y="245"/>
			<point x="407" y="249"/>
			<point x="407" y="240" type="curve"/>
			<point x="407" y="240" type="line"/>
			<point x="407" y="244"/>
			<point x="407" y="245"/>
			<point x="407" y="240" type="curve"/>
			<point x="407" y="244" type="line"/>
			<point x="407" y="248"/>
			<point x="407" y="252"/>
			<point x="407" y="258" type="curve"/>
			<point x="407" y="240" type="line"/>
			<point x="407" y="243"/>
			<point x="407" y="246"/>
			<point x="407" y="254" type="curve" smooth="yes"/>
			<point x="407" y="268" type="line" smooth="yes"/>
			<point x="407" y="276"/>
			<point x="407" y="275"/>
		</contour>
	</outline>
</glyph>
<glyph name="R" format="2">
	<advance width="852"/>
	<unicode hex="0052"/>
	<outline>
		<contour>
			<point x="50" y="629" type="curve" smooth="yes"/>
			<point x="50" y="71" type="line" smooth="yes"/>
			<point x="50" y="31"/>
			<point x="81" y="0"/>
			<point x="121" y="0" type="curve" smooth="yes"/>
			<point x="161" y="0" type="line" smooth="yes"/>
			<point x="201" y="0"/>
			<point x="200" y="0"/>
			<point x="222" y="0" type="curve"/>
			<point x="232" y="0" type="line" smooth="yes"/>
			<point x="242" y="0"/>
			<point x="238" y="0"/>
			<point x="246" y="0" type="curve" smooth="yes"/>
			<point x="260" y="0" type="line" smooth="yes"/>
			<point x="268" y="0"/>
			<point x="266" y="0"/>
			<point x="274" y="0" type="curve" smooth="yes"/>
			<point x="286" y="0" type="line"/>
			<point x="309" y="0"/>
			<point x="305" y="0"/>
			<point x="345" y="0" type="curve" smooth="yes"/>
			<point x="731" y="0" type="line" smooth="yes"/>
			<point x="771" y="0"/>
			<point x="802" y="31"/>
			<point x="802" y="71" type="curve" smooth="yes"/>
			<point x="802" y="234" type="line" smooth="yes"/>
			<point x="802" y="274"/>
			<point x="802" y="281"/>
			<point x="802" y="298" type="curve"/>
			<point x="802" y="305" type="line" smooth="yes"/>
			<point x="802" y="313"/>
			<point x="802" y="311"/>
			<point x="802" y="319" type="curve" smooth="yes"/>
			<point x="802" y="336" type="line" smooth="yes"/>
			<point x="802" y="344"/>
			<point x="802" y="342"/>
			<point x="802" y="350" type="curve" smooth="yes"/>
			<point x="802" y="357" type="line"/>
			<point x="802" y="371"/>
			<point x="802" y="399"/>
			<point x="802" y="465" type="curve" smooth="yes"/>
			<point x="802" y="585" type="line" smooth="yes"/>
			<point x="802" y="651"/>
			<point x="753" y="700"/>
			<point x="687" y="700" type="curve" smooth="yes"/>
			<point x="121" y="700" type="line" smooth="yes"/>
			<point x="81" y="700"/>
			<point x="50" y="669"/>
		</contour>
		<contour>
			<point x="416" y="406" type="curve" smooth="yes"/>
			<point x="416" y="420" type="line" smooth="yes"/>
			<point x="416" y="429"/>
			<point x="416" y="429"/>
			<point x="416" y="434" type="curve" smooth="yes"/>
			<point x="416" y="434" type="line" smooth="yes"/>
			<point x="416" y="428"/>
			<point x="416" y="429"/>
			<point x="416" y="420" type="curve" smooth="yes"/>
			<point x="416" y="406" type="line" smooth="yes"/>
			<point x="416" y="398"/>
			<point x="416" y="396"/>
			<point x="416" y="392" type="curve" smooth="yes"/>
			<point x="416" y="392" type="line" smooth="yes"/>
			<point x="416" y="398"/>
			<point x="416" y="398"/>
		</contour>
	</outline>
</glyph>
<glyph name="T" format="2">
	<advance width="852"/>
	<unicode hex="0054"/>
	<outline>
		<contour>
			<point x="121" y="0" type="curve" smooth="yes"/>
			<point x="161" y="0" type="line" smooth="yes"/>
			<point x="201" y="0"/>
			<point x="206" y="0"/>
			<point x="222" y="0" type="curve"/>
			<point x="232" y="0" type="line" smooth="yes"/>
			<point x="241" y="0"/>
			<point x="238" y="0"/>
			<point x="246" y="0" type="curve" smooth="yes"/>
			<point x="260" y="0" type="line" smooth="yes"/>
			<point x="268" y="0"/>
			<point x="265" y="0"/>
			<point x="274" y="0" type="curve" smooth="yes"/>
			<point x="284" y="0" type="line"/>
			<point x="296" y="0"/>
			<point x="305" y="0"/>
			<point x="345" y="0" type="curve" smooth="yes"/>
			<point x="506" y="0" type="line" smooth="yes"/>
			<point x="547" y="0"/>
			<point x="549" y="0"/>
			<point x="568" y="0" type="curve"/>
			<point x="578" y="0" type="line" smooth="yes"/>
			<point x="587" y="0"/>
			<point x="583" y="0"/>
			<point x="592" y="0" type="curve" smooth="yes"/>
			<point x="606" y="0" type="line" smooth="yes"/>
			<point x="614" y="0"/>
			<point x="611" y="0"/>
			<point x="620" y="0" type="curve" smooth="yes"/>
			<point x="630" y="0" type="line"/>
			<point x="639" y="0"/>
			<point x="651" y="0"/>
			<point x="691" y="0" type="curve" smooth="yes"/>
			<point x="731" y="0" type="line" smooth="yes"/>
			<point x="771" y="0"/>
			<point x="802" y="31"/>
			<point x="802" y="71" type="curve" smooth="yes"/>
			<point x="802" y="629" type="line" smooth="yes"/>
			<point x="802" y="669"/>
			<point x="771" y="700"/>
			<point x="731" y="700" type="curve" smooth="yes"/>
			<point x="121" y="700" type="line" smooth="yes"/>
			<point x="81" y="700"/>
			<point x="50" y="669"/>
			<point x="50" y="629" type="curve" smooth="yes"/>
			<point x="50" y="71" type="line" smooth="yes"/>
			<point x="50" y="31"/>
			<point x="81" y="0"/>
		</contour>
	</outline>
</glyph>
<glyph name="U" format="2">
	<advance width="853"/>
	<unicode hex="0055"/>
	<outline>
		<contour>
			<point x="50" y="629" type="curve" smooth="yes"/>
			<point x="50" y="115" type="line" smooth="yes"/>
			<point x="50" y="49"/>
			<point x="99" y="0"/>
			<point x="165" y="0" type="curve" smooth="yes"/>
			<point x="689" y="0" type="line" smooth="yes"/>
			<point x="754" y="0"/>
			<point x="803" y="49"/>
			<point x="803" y="115" type="curve" smooth="yes"/>
			<point x="803" y="629" type="line" smooth="yes"/>
			<point x="803" y="669"/>
			<point x="773" y="700"/>
			<point x="732" y="700" type="curve" smooth="yes"/>
			<point x="529" y="700" type="line" smooth="yes"/>
			<point x="489" y="700"/>
			<point x="483" y="700"/>
			<point x="458" y="700" type="curve"/>
			<point x="448" y="700" type="line" smooth="yes"/>
			<point x="439" y="700"/>
			<point x="442" y="700"/>
			<point x="434" y="700" type="curve" smooth="yes"/>
			<point x="420" y="700" type="line" smooth="yes"/>
			<point x="411" y="700"/>
			<point x="415" y="700"/>
			<point x="406" y="700" type="curve" smooth="yes"/>
			<point x="396" y="700" type="line"/>
			<point x="381" y="700"/>
			<point x="375" y="700"/>
			<point x="334" y="700" type="curve" smooth="yes"/>
			<point x="121" y="700" type="line" smooth="yes"/>
			<point x="81" y="700"/>
			<point x="50" y="669"/>
		</contour>
	</outline>
</glyph>
<glyph name="V" format="2">
	<advance width="851"/>
	<unicode hex="0056"/>
	<outline>
		<contour>
			<point x="50" y="628" type="curve" smooth="yes"/>
			<point x="50" y="71" type="line" smooth="yes"/>
			<point x="50" y="31"/>
			<point x="81" y="0"/>
			<point x="121" y="0" type="curve" smooth="yes"/>
			<point x="217" y="0" type="line" smooth="yes"/>
			<point x="225" y="0"/>
			<point x="222" y="0"/>
			<point x="231" y="0" type="curve" smooth="yes"/>
			<point x="235" y="0" type="line"/>
			<point x="245" y="0"/>
			<point x="265" y="0"/>
			<point x="306" y="0" type="curve" smooth="yes"/>
			<point x="549" y="0" type="line" smooth="yes"/>
			<point x="590" y="0"/>
			<point x="603" y="0"/>
			<point x="621" y="0" type="curve"/>
			<point x="631" y="0" type="line" smooth="yes"/>
			<point x="641" y="0"/>
			<point x="636" y="0"/>
			<point x="645" y="0" type="curve" smooth="yes"/>
			<point x="730" y="0" type="line" smooth="yes"/>
			<point x="771" y="0"/>
			<point x="801" y="31"/>
			<point x="801" y="71" type="curve" smooth="yes"/>
			<point x="801" y="628" type="line" smooth="yes"/>
			<point x="801" y="669"/>
			<point x="771" y="700"/>
			<point x="730" y="700" type="curve" smooth="yes"/>
			<point x="517" y="700" type="line" smooth="yes"/>
			<point x="477" y="700"/>
			<point x="469" y="700"/>
			<point x="456" y="700" type="curve"/>
			<point x="446" y="700" type="line" smooth="yes"/>
			<point x="437" y="700"/>
			<point x="440" y="700"/>
			<point x="432" y="700" type="curve" smooth="yes"/>
			<point x="418" y="700" type="line" smooth="yes"/>
			<point x="410" y="700"/>
			<point x="413" y="700"/>
			<point x="404" y="700" type="curve" smooth="yes"/>
			<point x="394" y="700" type="line"/>
			<point x="379" y="700"/>
			<point x="373" y="700"/>
			<point x="333" y="700" type="curve" smooth="yes"/>
			<point x="121" y="700" type="line" smooth="yes"/>
			<point x="81" y="700"/>
			<point x="50" y="669"/>
		</contour>
	</outline>
</glyph>
<glyph name="W" format="2">
	<advance width="852"/>
	<unicode hex="0057"/>
	<outline>
		<contour>
			<point x="50" y="629" type="curve" smooth="yes"/>
			<point x="50" y="71" type="line" smooth="yes"/>
			<point x="50" y="31"/>
			<point x="81" y="0"/>
			<point x="121" y="0" type="curve" smooth="yes"/>
			<point x="329" y="0" type="line" smooth="yes"/>
			<point x="369" y="0"/>
			<point x="379" y="0"/>
			<point x="390" y="0" type="curve"/>
			<point x="400" y="0" type="line" smooth="yes"/>
			<point x="407" y="0"/>
			<point x="406" y="0"/>
			<point x="414" y="0" type="curve" smooth="yes"/>
			<point x="428" y="0" type="line" smooth="yes"/>
			<point x="436" y="0"/>
			<point x="435" y="0"/>
			<point x="442" y="0" type="curve" smooth="yes"/>
			<point x="452" y="0" type="line"/>
			<point x="463" y="0"/>
			<point x="473" y="0"/>
			<point x="513" y="0" type="curve" smooth="yes"/>
			<point x="730" y="0" type="line" smooth="yes"/>
			<point x="771" y="0"/>
			<point x="802" y="31"/>
			<point x="802" y="71" type="curve" smooth="yes"/>
			<point x="802" y="629" type="line" smooth="yes"/>
			<point x="802" y="669"/>
			<point x="771" y="700"/>
			<point x="730" y="700" type="curve" smooth="yes"/>
			<point x="691" y="700" type="line" smooth="yes"/>
			<point x="651" y="700"/>
			<point x="643" y="700"/>
			<point x="630" y="700" type="curve"/>
			<point x="620" y="700" type="line" smooth="yes"/>
			<point x="612" y="700"/>
			<point x="614" y="700"/>
			<point x="606" y="700" type="curve" smooth="yes"/>
			<point x="592" y="700" type="line" smooth="yes"/>
			<point x="583" y="700"/>
			<point x="586" y="700"/>
			<point x="578" y="700" type="curve" smooth="yes"/>
			<point x="568" y="700" type="line"/>
			<point x="556" y="700"/>
			<point x="547" y="700"/>
			<point x="506" y="700" type="curve" smooth="yes"/>
			<point x="345" y="700" type="line" smooth="yes"/>
			<point x="305" y="700"/>
			<point x="293" y="700"/>
			<point x="284" y="700" type="curve"/>
			<point x="274" y="700" type="line" smooth="yes"/>
			<point x="266" y="700"/>
			<point x="268" y="700"/>
			<point x="260" y="700" type="curve" smooth="yes"/>
			<point x="246" y="700" type="line" smooth="yes"/>
			<point x="238" y="700"/>
			<point x="240" y="700"/>
			<point x="232" y="700" type="curve" smooth="yes"/>
			<point x="222" y="700" type="line"/>
			<point x="213" y="700"/>
			<point x="201" y="700"/>
			<point x="161" y="700" type="curve" smooth="yes"/>
			<point x="121" y="700" type="line" smooth="yes"/>
			<point x="81" y="700"/>
			<point x="50" y="669"/>
		</contour>
	</outline>
</glyph>
<glyph name="X" format="2">
	<advance width="852"/>
	<unicode hex="0058"/>
	<outline>
		<contour>
			<point x="50" y="629" type="curve" smooth="yes"/>
			<point x="50" y="442" type="line" smooth="yes"/>
			<point x="50" y="402"/>
			<point x="50" y="394"/>
			<point x="50" y="381" type="curve"/>
			<point x="50" y="371" type="line" smooth="yes"/>
			<point x="50" y="364"/>
			<point x="50" y="365"/>
			<point x="50" y="357" type="curve" smooth="yes"/>
			<point x="50" y="343" type="line" smooth="yes"/>
			<point x="50" y="335"/>
			<point x="50" y="336"/>
			<point x="50" y="329" type="curve" smooth="yes"/>
			<point x="50" y="319" type="line"/>
			<point x="50" y="309"/>
			<point x="50" y="298"/>
			<point x="50" y="258" type="curve" smooth="yes"/>
			<point x="50" y="71" type="line" smooth="yes"/>
			<point x="50" y="31"/>
			<point x="81" y="0"/>
			<point x="121" y="0" type="curve" smooth="yes"/>
			<point x="333" y="0" type="line" smooth="yes"/>
			<point x="373" y="0"/>
			<point x="383" y="0"/>
			<point x="394" y="0" type="curve"/>
			<point x="404" y="0" type="line" smooth="yes"/>
			<point x="413" y="0"/>
			<point x="410" y="0"/>
			<point x="418" y="0" type="curve" smooth="yes"/>
			<point x="432" y="0" type="line" smooth="yes"/>
			<point x="441" y="0"/>
			<point x="437" y="0"/>
			<point x="446" y="0" type="curve" smooth="yes"/>
			<point x="456" y="0" type="line"/>
			<point x="467" y="0"/>
			<point x="477" y="0"/>
			<point x="518" y="0" type="curve" smooth="yes"/>
			<point x="730" y="0" type="line" smooth="yes"/>
			<point x="771" y="0"/>
			<point x="802" y="31"/>
			<point x="802" y="71" type="curve" smooth="yes"/>
			<point x="802" y="258" type="line" smooth="yes"/>
			<point x="802" y="298"/>
			<point x="802" y="303"/>
			<point x="802" y="319" type="curve"/>
			<point x="802" y="329" type="line" smooth="yes"/>
			<point x="802" y="337"/>
			<point x="802" y="335"/>
			<point x="802" y="343" type="curve" smooth="yes"/>
			<point x="802" y="357" type="line" smooth="yes"/>
			<point x="802" y="365"/>
			<point x="802" y="363"/>
			<point x="802" y="371" type="curve" smooth="yes"/>
			<point x="802" y="381" type="line"/>
			<point x="802" y="397"/>
			<point x="802" y="402"/>
			<point x="802" y="442" type="curve" smooth="yes"/>
			<point x="802" y="629" type="line" smooth="yes"/>
			<point x="802" y="669"/>
			<point x="771" y="700"/>
			<point x="730" y="700" type="curve" smooth="yes"/>
			<point x="518" y="700" type="line" smooth="yes"/>
			<point x="477" y="700"/>
			<point x="472" y="700"/>
			<point x="456" y="700" type="curve"/>
			<point x="446" y="700" type="line" smooth="yes"/>
			<point x="437" y="700"/>
			<point x="441" y="700"/>
			<point x="432" y="700" type="curve" smooth="yes"/>
			<point x="418" y="700" type="line" smooth="yes"/>
			<point x="410" y="700"/>
			<point x="413" y="700"/>
			<point x="404" y="700" type="curve" smooth="yes"/>
			<point x="394" y="700" type="line"/>
			<point x="380" y="700"/>
			<point x="373" y="700"/>
			<point x="333" y="700" type="curve" smooth="yes"/>
			<point x="121" y="700" type="line" smooth="yes"/>
			<point x="81" y="700"/>
			<point x="50" y="669"/>
		</contour>
	</outline>
</glyph>
<glyph name="Y" format="2">
	<advance width="853"/>
	<unicode hex="0059"/>
	<outline>
		<contour>
			<point x="50" y="629" type="curve" smooth="yes"/>
			<point x="50" y="422" type="line" smooth="yes"/>
			<point x="50" y="381"/>
			<point x="50" y="370"/>
			<point x="50" y="350" type="curve"/>
			<point x="50" y="339" type="line" smooth="yes"/>
			<point x="50" y="331"/>
			<point x="50" y="334"/>
			<point x="50" y="326" type="curve" smooth="yes"/>
			<point x="50" y="71" type="line" smooth="yes"/>
			<point x="50" y="31"/>
			<point x="81" y="0"/>
			<point x="121" y="0" type="curve" smooth="yes"/>
			<point x="732" y="0" type="line" smooth="yes"/>
			<point x="773" y="0"/>
			<point x="803" y="31"/>
			<point x="803" y="71" type="curve" smooth="yes"/>
			<point x="803" y="326" type="line" smooth="yes"/>
			<point x="803" y="334"/>
			<point x="803" y="332"/>
			<point x="803" y="339" type="curve" smooth="yes"/>
			<point x="803" y="350" type="line"/>
			<point x="803" y="363"/>
			<point x="803" y="381"/>
			<point x="803" y="422" type="curve" smooth="yes"/>
			<point x="803" y="629" type="line" smooth="yes"/>
			<point x="803" y="669"/>
			<point x="773" y="700"/>
			<point x="732" y="700" type="curve" smooth="yes"/>
			<point x="520" y="700" type="line" smooth="yes"/>
			<point x="479" y="700"/>
			<point x="471" y="700"/>
			<point x="458" y="700" type="curve"/>
			<point x="448" y="700" type="line" smooth="yes"/>
			<point x="440" y="700"/>
			<point x="443" y="700"/>
			<point x="434" y="700" type="curve" smooth="yes"/>
			<point x="420" y="700" type="line" smooth="yes"/>
			<point x="412" y="700"/>
			<point x="414" y="700"/>
			<point x="406" y="700" type="curve" smooth="yes"/>
			<point x="396" y="700" type="line"/>
			<point x="384" y="700"/>
			<point x="375" y="700"/>
			<point x="335" y="700" type="curve" smooth="yes"/>
			<point x="121" y="700" type="line" smooth="yes"/>
			<point x="81" y="700"/>
			<point x="50" y="669"/>
		</contour>
	</outline>
</glyph>
<glyph name="Z" format="2">
	<advance width="852"/>
	<unicode hex="005A"/>
	<outline>
		<contour>
			<point x="121" y="700" type="curve" smooth="yes"/>
			<point x="731" y="700" type="line" smooth="yes"/>
			<point x="771" y="700"/>
			<point x="802" y="670"/>
			<point x="802" y="629" type="curve" smooth="yes"/>
			<point x="802" y="296" type="line" smooth="yes"/>
			<point x="802" y="255"/>
			<point x="802" y="259"/>
			<point x="802" y="234" type="curve"/>
			<point x="802" y="224" type="line" smooth="yes"/>
			<point x="802" y="216"/>
			<point x="802" y="219"/>
			<point x="802" y="210" type="curve" smooth="yes"/>
			<point x="802" y="196" type="line" smooth="yes"/>
			<point x="802" y="188"/>
			<point x="802" y="190"/>
			<point x="802" y="182" type="curve" smooth="yes"/>
			<point x="802" y="172" type="line"/>
			<point x="802" y="155"/>
			<point x="802" y="151"/>
			<point x="802" y="111" type="curve" smooth="yes"/>
			<point x="802" y="71" type="line" smooth="yes"/>
			<point x="802" y="31"/>
			<point x="771" y="0"/>
			<point x="731" y="0" type="curve" smooth="yes"/>
			<point x="121" y="0" type="line" smooth="yes"/>
			<point x="81" y="0"/>
			<point x="50" y="31"/>
			<point x="50" y="71" type="curve" smooth="yes"/>
			<point x="50" y="405" type="line" smooth="yes"/>
			<point x="50" y="445"/>
			<point x="50" y="450"/>
			<point x="50" y="466" type="curve"/>
			<point x="50" y="476" type="line" smooth="yes"/>
			<point x="50" y="484"/>
			<point x="50" y="482"/>
			<point x="50" y="490" type="curve" smooth="yes"/>
			<point x="50" y="504" type="line" smooth="yes"/>
			<point x="50" y="513"/>
			<point x="50" y="510"/>
			<point x="50" y="518" type="curve" smooth="yes"/>
			<point x="50" y="528" type="line"/>
			<point x="50" y="549"/>
			<point x="50" y="549"/>
			<point x="50" y="590" type="curve" smooth="yes"/>
			<point x="50" y="629" type="line" smooth="yes"/>
			<point x="50" y="670"/>
			<point x="81" y="700"/>
		</contour>
	</outline>
</glyph>
<glyph name="a" format="2">
	<advance width="636"/>
	<unicode hex="0061"/>
	<outline>
		<contour>
			<point x="50" y="49" type="curve" smooth="yes"/>
			<point x="50" y="449" type="line" smooth="yes"/>
			<point x="50" y="477"/>
			<point x="71" y="500"/>
			<point x="98" y="500" type="curve" smooth="yes"/>
			<point x="535" y="500" type="line" smooth="yes"/>
			<point x="563" y="500"/>
			<point x="586" y="477"/>
			<point x="586" y="449" type="curve" smooth="yes"/>
			<point x="586" y="48" type="line" smooth="yes"/>
			<point x="586" y="21"/>
			<point x="563" y="0"/>
			<point x="535" y="0" type="curve" smooth="yes"/>
			<point x="504" y="0" type="line" smooth="yes"/>
			<point x="475" y="0"/>
			<point x="463" y="0"/>
			<point x="456" y="0" type="curve"/>
			<point x="454" y="0" type="line"/>
			<point x="452" y="0"/>
			<point x="449" y="0"/>
			<point x="444" y="0" type="curve" smooth="yes"/>
			<point x="192" y="0" type="line" smooth="yes"/>
			<point x="188" y="0"/>
			<point x="188" y="0"/>
			<point x="183" y="0" type="curve"/>
			<point x="181" y="0" type="line"/>
			<point x="174" y="0"/>
			<point x="161" y="0"/>
			<point x="132" y="0" type="curve" smooth="yes"/>
			<point x="98" y="0" type="line" smooth="yes"/>
			<point x="71" y="0"/>
			<point x="50" y="22"/>
		</contour>
		<contour>
			<point x="311" y="192" type="curve" smooth="yes"/>
			<point x="311" y="192" type="line" smooth="yes"/>
			<point x="311" y="196"/>
			<point x="311" y="195"/>
			<point x="311" y="202" type="curve" smooth="yes"/>
			<point x="311" y="212" type="line" smooth="yes"/>
			<point x="311" y="218"/>
			<point x="311" y="215"/>
			<point x="311" y="222" type="curve" smooth="yes"/>
			<point x="311" y="222" type="line" smooth="yes"/>
			<point x="311" y="218"/>
			<point x="311" y="218"/>
			<point x="311" y="212" type="curve" smooth="yes"/>
			<point x="311" y="202" type="line" smooth="yes"/>
			<point x="311" y="195"/>
			<point x="311" y="196"/>
		</contour>
	</outline>
</glyph>
<glyph name="b" format="2">
	<advance width="637"/>
	<unicode hex="0062"/>
	<outline>
		<contour>
			<point x="101" y="500" type="curve" smooth="yes"/>
			<point x="505" y="500" type="line" smooth="yes"/>
			<point x="552" y="500"/>
			<point x="587" y="465"/>
			<point x="587" y="418" type="curve" smooth="yes"/>
			<point x="587" y="316" type="line" smooth="yes"/>
			<point x="587" y="287"/>
			<point x="587" y="275"/>
			<point x="587" y="265" type="curve"/>
			<point x="587" y="261" type="line"/>
			<point x="587" y="257"/>
			<point x="587" y="261"/>
			<point x="587" y="255" type="curve" smooth="yes"/>
			<point x="587" y="245" type="line" smooth="yes"/>
			<point x="587" y="239"/>
			<point x="587" y="241"/>
			<point x="587" y="239" type="curve"/>
			<point x="587" y="235" type="line"/>
			<point x="587" y="217"/>
			<point x="587" y="213"/>
			<point x="587" y="184" type="curve"/>
			<point x="586" y="82" type="line" smooth="yes"/>
			<point x="585" y="35"/>
			<point x="551" y="0"/>
			<point x="504" y="0" type="curve" smooth="yes"/>
			<point x="101" y="0" type="line" smooth="yes"/>
			<point x="72" y="0"/>
			<point x="50" y="22"/>
			<point x="50" y="51" type="curve" smooth="yes"/>
			<point x="50" y="449" type="line" smooth="yes"/>
			<point x="50" y="478"/>
			<point x="72" y="500"/>
		</contour>
		<contour>
			<point x="317" y="235" type="curve" smooth="yes"/>
			<point x="317" y="235" type="line" smooth="yes"/>
			<point x="317" y="229"/>
			<point x="317" y="231"/>
			<point x="317" y="225" type="curve" smooth="yes"/>
			<point x="317" y="215" type="line" smooth="yes"/>
			<point x="317" y="209"/>
			<point x="317" y="208"/>
			<point x="317" y="205" type="curve" smooth="yes"/>
			<point x="317" y="205" type="line" smooth="yes"/>
			<point x="317" y="208"/>
			<point x="317" y="209"/>
			<point x="317" y="215" type="curve" smooth="yes"/>
			<point x="317" y="225" type="line" smooth="yes"/>
			<point x="317" y="231"/>
			<point x="317" y="231"/>
		</contour>
		<contour>
			<point x="317" y="295" type="curve" smooth="yes"/>
			<point x="317" y="295" type="line" smooth="yes"/>
			<point x="317" y="290"/>
			<point x="317" y="291"/>
			<point x="317" y="285" type="curve" smooth="yes"/>
			<point x="317" y="275" type="line" smooth="yes"/>
			<point x="317" y="269"/>
			<point x="317" y="269"/>
			<point x="317" y="265" type="curve" smooth="yes"/>
			<point x="317" y="265" type="line" smooth="yes"/>
			<point x="317" y="269"/>
			<point x="317" y="269"/>
			<point x="317" y="275" type="curve" smooth="yes"/>
			<point x="317" y="285" type="line" smooth="yes"/>
			<point x="317" y="291"/>
			<point x="317" y="289"/>
		</contour>
	</outline>
</glyph>
<glyph name="c" format="2">
	<advance width="637"/>
	<unicode hex="0063"/>
	<outline>
		<contour>
			<point x="50" y="449" type="curve" smooth="yes"/>
			<point x="50" y="51" type="line" smooth="yes"/>
			<point x="50" y="22"/>
			<point x="72" y="0"/>
			<point x="101" y="0" type="curve" smooth="yes"/>
			<point x="536" y="0" type="line" smooth="yes"/>
			<point x="565" y="0"/>
			<point x="587" y="22"/>
			<point x="587" y="51" type="curve" smooth="yes"/>
			<point x="587" y="184" type="line" smooth="yes"/>
			<point x="587" y="213"/>
			<point x="587" y="205"/>
			<point x="587" y="235" type="curve"/>
			<point x="587" y="242" type="line"/>
			<point x="587" y="239"/>
			<point x="587" y="239"/>
			<point x="587" y="245" type="curve"/>
			<point x="587" y="255" type="line"/>
			<point x="587" y="261"/>
			<point x="587" y="261"/>
			<point x="587" y="258" type="curve"/>
			<point x="587" y="265" type="line"/>
			<point x="587" y="294"/>
			<point x="587" y="287"/>
			<point x="587" y="316" type="curve" smooth="yes"/>
			<point x="587" y="449" type="line" smooth="yes"/>
			<point x="587" y="478"/>
			<point x="565" y="500"/>
			<point x="536" y="500" type="curve" smooth="yes"/>
			<point x="101" y="500" type="line" smooth="yes"/>
			<point x="72" y="500"/>
			<point x="50" y="478"/>
		</contour>
	</outline>
</glyph>
<glyph name="e" format="2">
	<advance width="637"/>
	<unicode hex="0065"/>
	<anchor x="288" y="500" name="top"/>
	<outline>
		<contour>
			<point x="50" y="449" type="curve" smooth="yes"/>
			<point x="50" y="51" type="line" smooth="yes"/>
			<point x="50" y="22"/>
			<point x="72" y="0"/>
			<point x="101" y="0" type="curve" smooth="yes"/>
			<point x="536" y="0" type="line" smooth="yes"/>
			<point x="565" y="0"/>
			<point x="587" y="22"/>
			<point x="587" y="51" type="curve" smooth="yes"/>
			<point x="587" y="79" type="line" smooth="yes"/>
			<point x="587" y="108"/>
			<point x="587" y="117"/>
			<point x="587" y="130" type="curve"/>
			<point x="587" y="137" type="line"/>
			<point x="587" y="141"/>
			<point x="587" y="134"/>
			<point x="587" y="140" type="curve" smooth="yes"/>
			<point x="587" y="150" type="line" smooth="yes"/>
			<point x="587" y="156"/>
			<point x="587" y="149"/>
			<point x="587" y="153" type="curve"/>
			<point x="587" y="160" type="line"/>
			<point x="587" y="170"/>
			<point x="587" y="182"/>
			<point x="587" y="211" type="curve" smooth="yes"/>
			<point x="587" y="289" type="line" smooth="yes"/>
			<point x="587" y="318"/>
			<point x="587" y="324"/>
			<point x="587" y="340" type="curve"/>
			<point x="587" y="344" type="line"/>
			<point x="587" y="347"/>
			<point x="587" y="344"/>
			<point x="587" y="350" type="curve" smooth="yes"/>
			<point x="587" y="360" type="line" smooth="yes"/>
			<point x="587" y="366"/>
			<point x="587" y="365"/>
			<point x="587" y="367" type="curve"/>
			<point x="587" y="370" type="line"/>
			<point x="587" y="379"/>
			<point x="587" y="392"/>
			<point x="587" y="421" type="curve" smooth="yes"/>
			<point x="587" y="449" type="line" smooth="yes"/>
			<point x="587" y="478"/>
			<point x="565" y="500"/>
			<point x="536" y="500" type="curve" smooth="yes"/>
			<point x="101" y="500" type="line" smooth="yes"/>
			<point x="72" y="500"/>
			<point x="50" y="478"/>
		</contour>
	</outline>
</glyph>
<glyph name="f" format="2">
	<advance width="637"/>
	<unicode hex="0066"/>
	<outline>
		<contour>
			<point x="50" y="449" type="curve" smooth="yes"/>
			<point x="50" y="51" type="line" smooth="yes"/>
			<point x="50" y="22"/>
			<point x="72" y="0"/>
			<point x="101" y="0" type="curve" smooth="yes"/>
			<point x="129" y="0" type="line" smooth="yes"/>
			<point x="158" y="0"/>
			<point x="169" y="0"/>
			<point x="179" y="0" type="curve"/>
			<point x="180" y="0" type="line"/>
			<point x="184" y="0"/>
			<point x="184" y="0"/>
			<point x="190" y="0" type="curve" smooth="yes"/>
			<point x="536" y="0" type="line" smooth="yes"/>
			<point x="565" y="0"/>
			<point x="587" y="22"/>
			<point x="587" y="51" type="curve" smooth="yes"/>
			<point x="587" y="215" type="line" smooth="yes"/>
			<point x="587" y="244"/>
			<point x="587" y="251"/>
			<point x="587" y="266" type="curve"/>
			<point x="587" y="269" type="line" smooth="yes"/>
			<point x="587" y="275"/>
			<point x="587" y="270"/>
			<point x="587" y="276" type="curve" smooth="yes"/>
			<point x="587" y="286" type="line" smooth="yes"/>
			<point x="587" y="292"/>
			<point x="587" y="286"/>
			<point x="587" y="293" type="curve" smooth="yes"/>
			<point x="587" y="296" type="line"/>
			<point x="587" y="309"/>
			<point x="587" y="318"/>
			<point x="587" y="347" type="curve" smooth="yes"/>
			<point x="587" y="449" type="line" smooth="yes"/>
			<point x="587" y="478"/>
			<point x="565" y="500"/>
			<point x="536" y="500" type="curve" smooth="yes"/>
			<point x="101" y="500" type="line" smooth="yes"/>
			<point x="72" y="500"/>
			<point x="50" y="478"/>
		</contour>
	</outline>
</glyph>
<glyph name="g" format="2">
	<advance width="637"/>
	<unicode hex="0067"/>
	<outline>
		<contour>
			<point x="50" y="418" type="curve" smooth="yes"/>
			<point x="50" y="82" type="line" smooth="yes"/>
			<point x="50" y="35"/>
			<point x="85" y="0"/>
			<point x="132" y="0" type="curve" smooth="yes"/>
			<point x="505" y="0" type="line" smooth="yes"/>
			<point x="552" y="0"/>
			<point x="587" y="35"/>
			<point x="587" y="82" type="curve" smooth="yes"/>
			<point x="587" y="169" type="line" smooth="yes"/>
			<point x="587" y="198"/>
			<point x="587" y="166"/>
			<point x="587" y="196" type="curve"/>
			<point x="587" y="200" type="line"/>
			<point x="587" y="206"/>
			<point x="587" y="206"/>
			<point x="587" y="210" type="curve"/>
			<point x="587" y="211" type="line"/>
			<point x="587" y="216"/>
			<point x="587" y="209"/>
			<point x="587" y="211" type="curve"/>
			<point x="587" y="212" type="line"/>
			<point x="587" y="213"/>
			<point x="587" y="211"/>
			<point x="587" y="214" type="curve"/>
			<point x="587" y="214" type="line"/>
			<point x="587" y="216"/>
			<point x="587" y="211"/>
			<point x="587" y="217" type="curve"/>
			<point x="587" y="220" type="line" smooth="yes"/>
			<point x="587" y="226"/>
			<point x="587" y="224"/>
			<point x="587" y="229" type="curve" smooth="yes"/>
			<point x="587" y="240" type="line" smooth="yes"/>
			<point x="587" y="246"/>
			<point x="587" y="244"/>
			<point x="587" y="248" type="curve"/>
			<point x="587" y="250" type="line"/>
			<point x="587" y="266"/>
			<point x="587" y="272"/>
			<point x="587" y="301" type="curve" smooth="yes"/>
			<point x="587" y="449" type="line" smooth="yes"/>
			<point x="587" y="478"/>
			<point x="565" y="500"/>
			<point x="536" y="500" type="curve" smooth="yes"/>
			<point x="132" y="500" type="line" smooth="yes"/>
			<point x="85" y="500"/>
			<point x="50" y="465"/>
		</contour>
	</outline>
</glyph>
<glyph name="h" format="2">
	<advance width="637"/>
	<unicode hex="0068"/>
	<outline>
		<contour>
			<point x="50" y="449" type="curve" smooth="yes"/>
			<point x="50" y="51" type="line" smooth="yes"/>
			<point x="50" y="22"/>
			<point x="72" y="0"/>
			<point x="101" y="0" type="curve" smooth="yes"/>
			<point x="253" y="0" type="line" smooth="yes"/>
			<point x="282" y="0"/>
			<point x="293" y="0"/>
			<point x="302" y="0" type="curve"/>
			<point x="304" y="0" type="line"/>
			<point x="308" y="0"/>
			<point x="308" y="0"/>
			<point x="314" y="0" type="curve" smooth="yes"/>
			<point x="324" y="0" type="line" smooth="yes"/>
			<point x="330" y="0"/>
			<point x="330" y="0"/>
			<point x="334" y="0" type="curve"/>
			<point x="336" y="0" type="line"/>
			<point x="345" y="0"/>
			<point x="355" y="0"/>
			<point x="385" y="0" type="curve" smooth="yes"/>
			<point x="535" y="0" type="line" smooth="yes"/>
			<point x="565" y="0"/>
			<point x="587" y="22"/>
			<point x="587" y="51" type="curve" smooth="yes"/>
			<point x="587" y="449" type="line" smooth="yes"/>
			<point x="587" y="477"/>
			<point x="565" y="500"/>
			<point x="535" y="500" type="curve" smooth="yes"/>
			<point x="385" y="500" type="line" smooth="yes"/>
			<point x="355" y="500"/>
			<point x="355" y="500"/>
			<point x="341" y="500" type="curve"/>
			<point x="334" y="500" type="line" smooth="yes"/>
			<point x="328" y="500"/>
			<point x="330" y="500"/>
			<point x="324" y="500" type="curve" smooth="yes"/>
			<point x="314" y="500" type="line" smooth="yes"/>
			<point x="308" y="500"/>
			<point x="310" y="500"/>
			<point x="304" y="500" type="curve" smooth="yes"/>
			<point x="300" y="500" type="line"/>
			<point x="289" y="500"/>
			<point x="282" y="500"/>
			<point x="253" y="500" type="curve" smooth="yes"/>
			<point x="101" y="500" type="line" smooth="yes"/>
			<point x="72" y="500"/>
			<point x="50" y="477"/>
		</contour>
	</outline>
</glyph>
<glyph name="j" format="2">
	<advance width="637"/>
	<unicode hex="006A"/>
	<outline>
		<contour>
			<point x="587" y="450" type="curve" smooth="yes"/>
			<point x="587" y="51" type="line" smooth="yes"/>
			<point x="587" y="22"/>
			<point x="565" y="0"/>
			<point x="536" y="0" type="curve" smooth="yes"/>
			<point x="101" y="0" type="line" smooth="yes"/>
			<point x="72" y="0"/>
			<point x="50" y="22"/>
			<point x="50" y="51" type="curve" smooth="yes"/>
			<point x="50" y="450" type="line" smooth="yes"/>
			<point x="50" y="479"/>
			<point x="72" y="500"/>
			<point x="101" y="500" type="curve" smooth="yes"/>
			<point x="129" y="500" type="line" smooth="yes"/>
			<point x="158" y="500"/>
			<point x="171" y="500"/>
			<point x="175" y="500" type="curve"/>
			<point x="180" y="500" type="line" smooth="yes"/>
			<point x="185" y="500"/>
			<point x="184" y="500"/>
			<point x="190" y="500" type="curve" smooth="yes"/>
			<point x="200" y="500" type="line" smooth="yes"/>
			<point x="206" y="500"/>
			<point x="204" y="500"/>
			<point x="210" y="500" type="curve" smooth="yes"/>
			<point x="214" y="500" type="line"/>
			<point x="226" y="500"/>
			<point x="232" y="500"/>
			<point x="261" y="500" type="curve" smooth="yes"/>
			<point x="536" y="500" type="line" smooth="yes"/>
			<point x="565" y="500"/>
			<point x="587" y="478"/>
		</contour>
	</outline>
</glyph>
<glyph name="k" format="2">
	<advance width="637"/>
	<unicode hex="006B"/>
	<outline>
		<contour>
			<point x="50" y="449" type="curve" smooth="yes"/>
			<point x="50" y="51" type="line" smooth="yes"/>
			<point x="50" y="22"/>
			<point x="72" y="0"/>
			<point x="101" y="0" type="curve" smooth="yes"/>
			<point x="129" y="0" type="line" smooth="yes"/>
			<point x="158" y="0"/>
			<point x="164" y="0"/>
			<point x="177" y="0" type="curve"/>
			<point x="180" y="0" type="line" smooth="yes"/>
			<point x="185" y="0"/>
			<point x="184" y="0"/>
			<point x="190" y="0" type="curve" smooth="yes"/>
			<point x="200" y="0" type="line" smooth="yes"/>
			<point x="206" y="0"/>
			<point x="205" y="0"/>
			<point x="210" y="0" type="curve" smooth="yes"/>
			<point x="213" y="0" type="line"/>
			<point x="221" y="0"/>
			<point x="232" y="0"/>
			<point x="261" y="0" type="curve" smooth="yes"/>
			<point x="536" y="0" type="line" smooth="yes"/>
			<point x="565" y="0"/>
			<point x="587" y="22"/>
			<point x="587" y="51" type="curve" smooth="yes"/>
			<point x="587" y="184" type="line" smooth="yes"/>
			<point x="587" y="213"/>
			<point x="587" y="209"/>
			<point x="587" y="231" type="curve"/>
			<point x="587" y="235" type="line" smooth="yes"/>
			<point x="587" y="241"/>
			<point x="587" y="239"/>
			<point x="587" y="245" type="curve" smooth="yes"/>
			<point x="587" y="255" type="line" smooth="yes"/>
			<point x="587" y="261"/>
			<point x="587" y="259"/>
			<point x="587" y="265" type="curve" smooth="yes"/>
			<point x="587" y="269" type="line"/>
			<point x="587" y="284"/>
			<point x="587" y="287"/>
			<point x="587" y="316" type="curve" smooth="yes"/>
			<point x="587" y="449" type="line" smooth="yes"/>
			<point x="587" y="478"/>
			<point x="565" y="500"/>
			<point x="536" y="500" type="curve" smooth="yes"/>
			<point x="261" y="500" type="line" smooth="yes"/>
			<point x="232" y="500"/>
			<point x="228" y="500"/>
			<point x="214" y="500" type="curve"/>
			<point x="210" y="500" type="line" smooth="yes"/>
			<point x="204" y="500"/>
			<point x="206" y="500"/>
			<point x="200" y="500" type="curve" smooth="yes"/>
			<point x="190" y="500" type="line" smooth="yes"/>
			<point x="184" y="500"/>
			<point x="185" y="500"/>
			<point x="180" y="500" type="curve" smooth="yes"/>
			<point x="176" y="500" type="line"/>
			<point x="163" y="500"/>
			<point x="158" y="500"/>
			<point x="129" y="500" type="curve" smooth="yes"/>
			<point x="101" y="500" type="line" smooth="yes"/>
			<point x="72" y="500"/>
			<point x="50" y="478"/>
		</contour>
	</outline>
</glyph>
<glyph name="m" format="2">
	<advance width="637"/>
	<unicode hex="006D"/>
	<outline>
		<contour>
			<point x="50" y="51" type="curve" smooth="yes"/>
			<point x="50" y="449" type="line" smooth="yes"/>
			<point x="50" y="478"/>
			<point x="72" y="500"/>
			<point x="101" y="500" type="curve" smooth="yes"/>
			<point x="253" y="500" type="line" smooth="yes"/>
			<point x="281" y="500"/>
			<point x="289" y="500"/>
			<point x="300" y="500" type="curve"/>
			<point x="304" y="500" type="line" smooth="yes"/>
			<point x="309" y="500"/>
			<point x="308" y="500"/>
			<point x="314" y="500" type="curve" smooth="yes"/>
			<point x="324" y="500" type="line" smooth="yes"/>
			<point x="329" y="500"/>
			<point x="328" y="500"/>
			<point x="334" y="500" type="curve" smooth="yes"/>
			<point x="338" y="500" type="line"/>
			<point x="351" y="500"/>
			<point x="356" y="500"/>
			<point x="385" y="500" type="curve" smooth="yes"/>
			<point x="536" y="500" type="line" smooth="yes"/>
			<point x="565" y="500"/>
			<point x="587" y="478"/>
			<point x="587" y="449" type="curve" smooth="yes"/>
			<point x="587" y="51" type="line" smooth="yes"/>
			<point x="587" y="22"/>
			<point x="565" y="0"/>
			<point x="536" y="0" type="curve" smooth="yes"/>
			<point x="508" y="0" type="line" smooth="yes"/>
			<point x="479" y="0"/>
			<point x="472" y="0"/>
			<point x="460" y="0" type="curve"/>
			<point x="456" y="0" type="line" smooth="yes"/>
			<point x="449" y="0"/>
			<point x="453" y="0"/>
			<point x="446" y="0" type="curve" smooth="yes"/>
			<point x="436" y="0" type="line" smooth="yes"/>
			<point x="431" y="0"/>
			<point x="432" y="0"/>
			<point x="426" y="0" type="curve" smooth="yes"/>
			<point x="422" y="0" type="line"/>
			<point x="410" y="0"/>
			<point x="405" y="0"/>
			<point x="376" y="0" type="curve" smooth="yes"/>
			<point x="261" y="0" type="line" smooth="yes"/>
			<point x="232" y="0"/>
			<point x="227" y="0"/>
			<point x="214" y="0" type="curve"/>
			<point x="210" y="0" type="line" smooth="yes"/>
			<point x="203" y="0"/>
			<point x="206" y="0"/>
			<point x="200" y="0" type="curve" smooth="yes"/>
			<point x="190" y="0" type="line" smooth="yes"/>
			<point x="184" y="0"/>
			<point x="187" y="0"/>
			<point x="180" y="0" type="curve" smooth="yes"/>
			<point x="176" y="0" type="line"/>
			<point x="166" y="0"/>
			<point x="158" y="0"/>
			<point x="129" y="0" type="curve" smooth="yes"/>
			<point x="101" y="0" type="line" smooth="yes"/>
			<point x="72" y="0"/>
			<point x="50" y="22"/>
		</contour>
	</outline>
</glyph>
<glyph name="n" format="2">
	<advance width="637"/>
	<unicode hex="006E"/>
	<outline>
		<contour>
			<point x="50" y="449" type="curve" smooth="yes"/>
			<point x="50" y="51" type="line" smooth="yes"/>
			<point x="50" y="21"/>
			<point x="72" y="0"/>
			<point x="102" y="0" type="curve" smooth="yes"/>
			<point x="130" y="0" type="line" smooth="yes"/>
			<point x="159" y="0"/>
			<point x="166" y="0"/>
			<point x="177" y="0" type="curve"/>
			<point x="180" y="0" type="line" smooth="yes"/>
			<point x="187" y="0"/>
			<point x="184" y="0"/>
			<point x="190" y="0" type="curve" smooth="yes"/>
			<point x="200" y="0" type="line" smooth="yes"/>
			<point x="206" y="0"/>
			<point x="203" y="0"/>
			<point x="210" y="0" type="curve" smooth="yes"/>
			<point x="214" y="0" type="line"/>
			<point x="224" y="0"/>
			<point x="232" y="0"/>
			<point x="261" y="0" type="curve" smooth="yes"/>
			<point x="536" y="0" type="line" smooth="yes"/>
			<point x="565" y="0"/>
			<point x="587" y="22"/>
			<point x="587" y="51" type="curve" smooth="yes"/>
			<point x="587" y="449" type="line" smooth="yes"/>
			<point x="587" y="478"/>
			<point x="565" y="500"/>
			<point x="536" y="500" type="curve" smooth="yes"/>
			<point x="508" y="500" type="line" smooth="yes"/>
			<point x="479" y="500"/>
			<point x="471" y="500"/>
			<point x="461" y="500" type="curve"/>
			<point x="457" y="500" type="line" smooth="yes"/>
			<point x="452" y="500"/>
			<point x="453" y="500"/>
			<point x="447" y="500" type="curve" smooth="yes"/>
			<point x="437" y="500" type="line" smooth="yes"/>
			<point x="431" y="500"/>
			<point x="432" y="500"/>
			<point x="427" y="500" type="curve" smooth="yes"/>
			<point x="424" y="500" type="line"/>
			<point x="409" y="500"/>
			<point x="405" y="500"/>
			<point x="376" y="500" type="curve" smooth="yes"/>
			<point x="101" y="500" type="line" smooth="yes"/>
			<point x="72" y="500"/>
			<point x="50" y="478"/>
		</contour>
	</outline>
</glyph>
<glyph name="p" format="2">
	<advance width="638"/>
	<unicode hex="0070"/>
	<outline>
		<contour>
			<point x="50" y="450" type="curve" smooth="yes"/>
			<point x="50" y="51" type="line" smooth="yes"/>
			<point x="50" y="22"/>
			<point x="72" y="0"/>
			<point x="101" y="0" type="curve" smooth="yes"/>
			<point x="129" y="0" type="line" smooth="yes"/>
			<point x="158" y="0"/>
			<point x="176" y="0"/>
			<point x="180" y="0" type="curve"/>
			<point x="182" y="0" type="line" smooth="yes"/>
			<point x="188" y="0"/>
			<point x="184" y="0"/>
			<point x="190" y="0" type="curve" smooth="yes"/>
			<point x="505" y="0" type="line" smooth="yes"/>
			<point x="552" y="0"/>
			<point x="588" y="35"/>
			<point x="588" y="82" type="curve" smooth="yes"/>
			<point x="588" y="418" type="line" smooth="yes"/>
			<point x="588" y="465"/>
			<point x="552" y="500"/>
			<point x="505" y="500" type="curve" smooth="yes"/>
			<point x="101" y="500" type="line" smooth="yes"/>
			<point x="72" y="500"/>
			<point x="50" y="478"/>
		</contour>
		<contour>
			<point x="319" y="266" type="curve" smooth="yes"/>
			<point x="319" y="266" type="line" smooth="yes"/>
			<point x="319" y="269"/>
			<point x="319" y="270"/>
			<point x="319" y="276" type="curve" smooth="yes"/>
			<point x="319" y="286" type="line" smooth="yes"/>
			<point x="319" y="292"/>
			<point x="319" y="292"/>
			<point x="319" y="296" type="curve" smooth="yes"/>
			<point x="319" y="296" type="line" smooth="yes"/>
			<point x="319" y="292"/>
			<point x="319" y="292"/>
			<point x="319" y="286" type="curve" smooth="yes"/>
			<point x="319" y="276" type="line" smooth="yes"/>
			<point x="319" y="270"/>
			<point x="319" y="269"/>
		</contour>
	</outline>
</glyph>
<glyph name="q" format="2">
	<advance width="637"/>
	<unicode hex="0071"/>
	<outline>
		<contour>
			<point x="51" y="419" type="curve" smooth="yes"/>
			<point x="50" y="82" type="line" smooth="yes"/>
			<point x="50" y="34"/>
			<point x="85" y="0"/>
			<point x="132" y="0" type="curve" smooth="yes"/>
			<point x="169" y="0" type="line" smooth="yes"/>
			<point x="176" y="0"/>
			<point x="174" y="0"/>
			<point x="179" y="0" type="curve" smooth="yes"/>
			<point x="180" y="0" type="line" smooth="yes"/>
			<point x="186" y="0"/>
			<point x="184" y="0"/>
			<point x="190" y="0" type="curve" smooth="yes"/>
			<point x="577" y="0" type="line" smooth="yes"/>
			<point x="584" y="0"/>
			<point x="587" y="4"/>
			<point x="587" y="10" type="curve" smooth="yes"/>
			<point x="587" y="120" type="line" smooth="yes"/>
			<point x="587" y="126"/>
			<point x="587" y="124"/>
			<point x="587" y="130" type="curve" smooth="yes"/>
			<point x="587" y="137" type="line" smooth="yes"/>
			<point x="587" y="143"/>
			<point x="587" y="141"/>
			<point x="587" y="147" type="curve" smooth="yes"/>
			<point x="587" y="419" type="line" smooth="yes"/>
			<point x="587" y="465"/>
			<point x="552" y="500"/>
			<point x="505" y="500" type="curve" smooth="yes"/>
			<point x="132" y="500" type="line" smooth="yes"/>
			<point x="85" y="500"/>
			<point x="51" y="467"/>
		</contour>
		<contour>
			<point x="305" y="201" type="curve" smooth="yes"/>
			<point x="305" y="201" type="line" smooth="yes"/>
			<point x="305" y="199"/>
			<point x="305" y="197"/>
			<point x="305" y="191" type="curve" smooth="yes"/>
			<point x="305" y="181" type="line" smooth="yes"/>
			<point x="305" y="175"/>
			<point x="305" y="178"/>
			<point x="305" y="171" type="curve"/>
			<point x="305" y="171" type="line"/>
			<point x="305" y="174"/>
			<point x="305" y="175"/>
			<point x="305" y="171" type="curve"/>
			<point x="305" y="174" type="line"/>
			<point x="305" y="177"/>
			<point x="305" y="180"/>
			<point x="305" y="184" type="curve"/>
			<point x="305" y="171" type="line"/>
			<point x="305" y="174"/>
			<point x="305" y="176"/>
			<point x="305" y="181" type="curve" smooth="yes"/>
			<point x="305" y="191" type="line" smooth="yes"/>
			<point x="305" y="197"/>
			<point x="305" y="196"/>
		</contour>
	</outline>
</glyph>
<glyph name="s" format="2">
	<advance width="635"/>
	<unicode hex="0073"/>
	<outline>
		<contour>
			<point x="50" y="418" type="curve" smooth="yes"/>
			<point x="50" y="242" type="line" smooth="yes"/>
			<point x="50" y="195"/>
			<point x="50" y="179"/>
			<point x="50" y="164" type="curve"/>
			<point x="50" y="160" type="line" smooth="yes"/>
			<point x="50" y="155"/>
			<point x="50" y="156"/>
			<point x="50" y="150" type="curve" smooth="yes"/>
			<point x="50" y="140" type="line" smooth="yes"/>
			<point x="50" y="134"/>
			<point x="50" y="135"/>
			<point x="50" y="130" type="curve" smooth="yes"/>
			<point x="50" y="126" type="line"/>
			<point x="50" y="111"/>
			<point x="50" y="108"/>
			<point x="50" y="79" type="curve" smooth="yes"/>
			<point x="50" y="51" type="line" smooth="yes"/>
			<point x="50" y="22"/>
			<point x="72" y="0"/>
			<point x="101" y="0" type="curve" smooth="yes"/>
			<point x="503" y="0" type="line" smooth="yes"/>
			<point x="550" y="0"/>
			<point x="585" y="35"/>
			<point x="585" y="82" type="curve" smooth="yes"/>
			<point x="585" y="258" type="line" smooth="yes"/>
			<point x="585" y="305"/>
			<point x="585" y="301"/>
			<point x="585" y="333" type="curve"/>
			<point x="585" y="340" type="line" smooth="yes"/>
			<point x="585" y="345"/>
			<point x="585" y="344"/>
			<point x="585" y="350" type="curve" smooth="yes"/>
			<point x="585" y="360" type="line" smooth="yes"/>
			<point x="585" y="366"/>
			<point x="585" y="364"/>
			<point x="585" y="370" type="curve" smooth="yes"/>
			<point x="585" y="374" type="line"/>
			<point x="585" y="391"/>
			<point x="585" y="392"/>
			<point x="585" y="421" type="curve" smooth="yes"/>
			<point x="585" y="449" type="line" smooth="yes"/>
			<point x="585" y="478"/>
			<point x="563" y="500"/>
			<point x="534" y="500" type="curve" smooth="yes"/>
			<point x="132" y="500" type="line" smooth="yes"/>
			<point x="85" y="500"/>
			<point x="50" y="465"/>
		</contour>
	</outline>
</glyph>
<glyph name="t" format="2">
	<advance width="637"/>
	<unicode hex="0074"/>
	<outline>
		<contour>
			<point x="101" y="0" type="curve" smooth="yes"/>
			<point x="129" y="0" type="line" smooth="yes"/>
			<point x="158" y="0"/>
			<point x="161" y="0"/>
			<point x="173" y="0" type="curve"/>
			<point x="180" y="0" type="line" smooth="yes"/>
			<point x="186" y="0"/>
			<point x="184" y="0"/>
			<point x="190" y="0" type="curve" smooth="yes"/>
			<point x="200" y="0" type="line" smooth="yes"/>
			<point x="206" y="0"/>
			<point x="204" y="0"/>
			<point x="210" y="0" type="curve" smooth="yes"/>
			<point x="217" y="0" type="line"/>
			<point x="226" y="0"/>
			<point x="232" y="0"/>
			<point x="261" y="0" type="curve" smooth="yes"/>
			<point x="376" y="0" type="line" smooth="yes"/>
			<point x="405" y="0"/>
			<point x="406" y="0"/>
			<point x="420" y="0" type="curve"/>
			<point x="427" y="0" type="line" smooth="yes"/>
			<point x="434" y="0"/>
			<point x="431" y="0"/>
			<point x="437" y="0" type="curve" smooth="yes"/>
			<point x="447" y="0" type="line" smooth="yes"/>
			<point x="453" y="0"/>
			<point x="451" y="0"/>
			<point x="457" y="0" type="curve" smooth="yes"/>
			<point x="464" y="0" type="line"/>
			<point x="471" y="0"/>
			<point x="479" y="0"/>
			<point x="508" y="0" type="curve" smooth="yes"/>
			<point x="536" y="0" type="line" smooth="yes"/>
			<point x="565" y="0"/>
			<point x="587" y="22"/>
			<point x="587" y="51" type="curve" smooth="yes"/>
			<point x="587" y="449" type="line" smooth="yes"/>
			<point x="587" y="478"/>
			<point x="565" y="500"/>
			<point x="536" y="500" type="curve" smooth="yes"/>
			<point x="101" y="500" type="line" smooth="yes"/>
			<point x="72" y="500"/>
			<point x="50" y="478"/>
			<point x="50" y="449" type="curve" smooth="yes"/>
			<point x="50" y="51" type="line" smooth="yes"/>
			<point x="50" y="22"/>
			<point x="72" y="0"/>
		</contour>
	</outline>
</glyph>
<glyph name="u" format="2">
	<advance width="638"/>
	<unicode hex="0075"/>
	<outline>
		<contour>
			<point x="50" y="449" type="curve" smooth="yes"/>
			<point x="50" y="82" type="line" smooth="yes"/>
			<point x="50" y="35"/>
			<point x="85" y="0"/>
			<point x="132" y="0" type="curve" smooth="yes"/>
			<point x="506" y="0" type="line" smooth="yes"/>
			<point x="553" y="0"/>
			<point x="588" y="35"/>
			<point x="588" y="82" type="curve" smooth="yes"/>
			<point x="588" y="449" type="line" smooth="yes"/>
			<point x="588" y="478"/>
			<point x="566" y="500"/>
			<point x="537" y="500" type="curve" smooth="yes"/>
			<point x="392" y="500" type="line" smooth="yes"/>
			<point x="364" y="500"/>
			<point x="359" y="500"/>
			<point x="341" y="500" type="curve"/>
			<point x="334" y="500" type="line" smooth="yes"/>
			<point x="328" y="500"/>
			<point x="330" y="500"/>
			<point x="324" y="500" type="curve" smooth="yes"/>
			<point x="314" y="500" type="line" smooth="yes"/>
			<point x="308" y="500"/>
			<point x="311" y="500"/>
			<point x="304" y="500" type="curve" smooth="yes"/>
			<point x="297" y="500" type="line"/>
			<point x="286" y="500"/>
			<point x="282" y="500"/>
			<point x="253" y="500" type="curve" smooth="yes"/>
			<point x="101" y="500" type="line" smooth="yes"/>
			<point x="72" y="500"/>
			<point x="50" y="478"/>
		</contour>
	</outline>
</glyph>
<glyph name="v" format="2">
	<advance width="636"/>
	<unicode hex="0076"/>
	<outline>
		<contour>
			<point x="50" y="449" type="curve" smooth="yes"/>
			<point x="50" y="51" type="line" smooth="yes"/>
			<point x="50" y="22"/>
			<point x="72" y="0"/>
			<point x="101" y="0" type="curve" smooth="yes"/>
			<point x="169" y="0" type="line" smooth="yes"/>
			<point x="175" y="0"/>
			<point x="173" y="0"/>
			<point x="179" y="0" type="curve" smooth="yes"/>
			<point x="182" y="0" type="line"/>
			<point x="189" y="0"/>
			<point x="204" y="0"/>
			<point x="233" y="0" type="curve" smooth="yes"/>
			<point x="406" y="0" type="line" smooth="yes"/>
			<point x="436" y="0"/>
			<point x="445" y="0"/>
			<point x="458" y="0" type="curve"/>
			<point x="465" y="0" type="line" smooth="yes"/>
			<point x="472" y="0"/>
			<point x="469" y="0"/>
			<point x="475" y="0" type="curve" smooth="yes"/>
			<point x="536" y="0" type="line" smooth="yes"/>
			<point x="565" y="0"/>
			<point x="586" y="22"/>
			<point x="586" y="51" type="curve" smooth="yes"/>
			<point x="586" y="449" type="line" smooth="yes"/>
			<point x="586" y="478"/>
			<point x="565" y="500"/>
			<point x="536" y="500" type="curve" smooth="yes"/>
			<point x="384" y="500" type="line" smooth="yes"/>
			<point x="355" y="500"/>
			<point x="349" y="500"/>
			<point x="340" y="500" type="curve"/>
			<point x="333" y="500" type="line" smooth="yes"/>
			<point x="326" y="500"/>
			<point x="329" y="500"/>
			<point x="323" y="500" type="curve" smooth="yes"/>
			<point x="313" y="500" type="line" smooth="yes"/>
			<point x="307" y="500"/>
			<point x="309" y="500"/>
			<point x="303" y="500" type="curve" smooth="yes"/>
			<point x="296" y="500" type="line"/>
			<point x="285" y="500"/>
			<point x="281" y="500"/>
			<point x="252" y="500" type="curve" smooth="yes"/>
			<point x="101" y="500" type="line" smooth="yes"/>
			<point x="72" y="500"/>
			<point x="50" y="478"/>
		</contour>
	</outline>
</glyph>
<glyph name="w" format="2">
	<advance width="637"/>
	<unicode hex="0077"/>
	<outline>
		<contour>
			<point x="50" y="449" type="curve" smooth="yes"/>
			<point x="50" y="51" type="line" smooth="yes"/>
			<point x="50" y="22"/>
			<point x="72" y="0"/>
			<point x="101" y="0" type="curve" smooth="yes"/>
			<point x="249" y="0" type="line" smooth="yes"/>
			<point x="278" y="0"/>
			<point x="285" y="0"/>
			<point x="293" y="0" type="curve"/>
			<point x="300" y="0" type="line" smooth="yes"/>
			<point x="305" y="0"/>
			<point x="304" y="0"/>
			<point x="310" y="0" type="curve" smooth="yes"/>
			<point x="320" y="0" type="line" smooth="yes"/>
			<point x="326" y="0"/>
			<point x="325" y="0"/>
			<point x="330" y="0" type="curve" smooth="yes"/>
			<point x="337" y="0" type="line"/>
			<point x="345" y="0"/>
			<point x="352" y="0"/>
			<point x="381" y="0" type="curve" smooth="yes"/>
			<point x="536" y="0" type="line" smooth="yes"/>
			<point x="565" y="0"/>
			<point x="587" y="22"/>
			<point x="587" y="51" type="curve" smooth="yes"/>
			<point x="587" y="449" type="line" smooth="yes"/>
			<point x="587" y="478"/>
			<point x="565" y="500"/>
			<point x="536" y="500" type="curve" smooth="yes"/>
			<point x="508" y="500" type="line" smooth="yes"/>
			<point x="479" y="500"/>
			<point x="474" y="500"/>
			<point x="464" y="500" type="curve"/>
			<point x="457" y="500" type="line" smooth="yes"/>
			<point x="451" y="500"/>
			<point x="453" y="500"/>
			<point x="447" y="500" type="curve" smooth="yes"/>
			<point x="437" y="500" type="line" smooth="yes"/>
			<point x="431" y="500"/>
			<point x="433" y="500"/>
			<point x="427" y="500" type="curve" smooth="yes"/>
			<point x="420" y="500" type="line"/>
			<point x="411" y="500"/>
			<point x="405" y="500"/>
			<point x="376" y="500" type="curve" smooth="yes"/>
			<point x="261" y="500" type="line" smooth="yes"/>
			<point x="232" y="500"/>
			<point x="224" y="500"/>
			<point x="217" y="500" type="curve"/>
			<point x="210" y="500" type="line" smooth="yes"/>
			<point x="204" y="500"/>
			<point x="206" y="500"/>
			<point x="200" y="500" type="curve" smooth="yes"/>
			<point x="190" y="500" type="line" smooth="yes"/>
			<point x="184" y="500"/>
			<point x="186" y="500"/>
			<point x="180" y="500" type="curve" smooth="yes"/>
			<point x="173" y="500" type="line"/>
			<point x="166" y="500"/>
			<point x="158" y="500"/>
			<point x="129" y="500" type="curve" smooth="yes"/>
			<point x="101" y="500" type="line" smooth="yes"/>
			<point x="72" y="500"/>
			<point x="50" y="478"/>
		</contour>
	</outline>
</glyph>
<glyph name="x" format="2">
	<advance width="637"/>
	<unicode hex="0078"/>
	<outline>
		<contour>
			<point x="50" y="449" type="curve" smooth="yes"/>
			<point x="50" y="316" type="line" smooth="yes"/>
			<point x="50" y="287"/>
			<point x="50" y="281"/>
			<point x="50" y="272" type="curve"/>
			<point x="50" y="265" type="line" smooth="yes"/>
			<point x="50" y="260"/>
			<point x="50" y="261"/>
			<point x="50" y="255" type="curve" smooth="yes"/>
			<point x="50" y="245" type="line" smooth="yes"/>
			<point x="50" y="239"/>
			<point x="50" y="240"/>
			<point x="50" y="235" type="curve" smooth="yes"/>
			<point x="50" y="228" type="line"/>
			<point x="50" y="221"/>
			<point x="50" y="213"/>
			<point x="50" y="184" type="curve" smooth="yes"/>
			<point x="50" y="51" type="line" smooth="yes"/>
			<point x="50" y="22"/>
			<point x="72" y="0"/>
			<point x="101" y="0" type="curve" smooth="yes"/>
			<point x="252" y="0" type="line" smooth="yes"/>
			<point x="281" y="0"/>
			<point x="288" y="0"/>
			<point x="296" y="0" type="curve"/>
			<point x="303" y="0" type="line" smooth="yes"/>
			<point x="309" y="0"/>
			<point x="307" y="0"/>
			<point x="313" y="0" type="curve" smooth="yes"/>
			<point x="323" y="0" type="line" smooth="yes"/>
			<point x="329" y="0"/>
			<point x="326" y="0"/>
			<point x="333" y="0" type="curve" smooth="yes"/>
			<point x="340" y="0" type="line"/>
			<point x="348" y="0"/>
			<point x="355" y="0"/>
			<point x="384" y="0" type="curve" smooth="yes"/>
			<point x="536" y="0" type="line" smooth="yes"/>
			<point x="565" y="0"/>
			<point x="587" y="22"/>
			<point x="587" y="51" type="curve" smooth="yes"/>
			<point x="587" y="184" type="line" smooth="yes"/>
			<point x="587" y="213"/>
			<point x="587" y="216"/>
			<point x="587" y="228" type="curve"/>
			<point x="587" y="235" type="line" smooth="yes"/>
			<point x="587" y="241"/>
			<point x="587" y="239"/>
			<point x="587" y="245" type="curve" smooth="yes"/>
			<point x="587" y="255" type="line" smooth="yes"/>
			<point x="587" y="261"/>
			<point x="587" y="259"/>
			<point x="587" y="265" type="curve" smooth="yes"/>
			<point x="587" y="272" type="line"/>
			<point x="587" y="284"/>
			<point x="587" y="287"/>
			<point x="587" y="316" type="curve" smooth="yes"/>
			<point x="587" y="449" type="line" smooth="yes"/>
			<point x="587" y="478"/>
			<point x="565" y="500"/>
			<point x="536" y="500" type="curve" smooth="yes"/>
			<point x="384" y="500" type="line" smooth="yes"/>
			<point x="355" y="500"/>
			<point x="351" y="500"/>
			<point x="340" y="500" type="curve"/>
			<point x="333" y="500" type="line" smooth="yes"/>
			<point x="326" y="500"/>
			<point x="329" y="500"/>
			<point x="323" y="500" type="curve" smooth="yes"/>
			<point x="313" y="500" type="line" smooth="yes"/>
			<point x="307" y="500"/>
			<point x="309" y="500"/>
			<point x="303" y="500" type="curve" smooth="yes"/>
			<point x="296" y="500" type="line"/>
			<point x="286" y="500"/>
			<point x="281" y="500"/>
			<point x="252" y="500" type="curve" smooth="yes"/>
			<point x="101" y="500" type="line" smooth="yes"/>
			<point x="72" y="500"/>
			<point x="50" y="478"/>
		</contour>
	</outline>
</glyph>
<glyph name="y" format="2">
	<advance width="638"/>
	<unicode hex="0079"/>
	<outline>
		<contour>
			<point x="50" y="449" type="curve" smooth="yes"/>
			<point x="50" y="301" type="line" smooth="yes"/>
			<point x="50" y="272"/>
			<point x="50" y="264"/>
			<point x="50" y="250" type="curve"/>
			<point x="50" y="242" type="line" smooth="yes"/>
			<point x="50" y="236"/>
			<point x="50" y="239"/>
			<point x="50" y="233" type="curve" smooth="yes"/>
			<point x="50" y="51" type="line" smooth="yes"/>
			<point x="50" y="22"/>
			<point x="72" y="0"/>
			<point x="101" y="0" type="curve" smooth="yes"/>
			<point x="537" y="0" type="line" smooth="yes"/>
			<point x="566" y="0"/>
			<point x="588" y="22"/>
			<point x="588" y="51" type="curve" smooth="yes"/>
			<point x="588" y="233" type="line" smooth="yes"/>
			<point x="588" y="239"/>
			<point x="588" y="237"/>
			<point x="588" y="242" type="curve" smooth="yes"/>
			<point x="588" y="250" type="line"/>
			<point x="588" y="259"/>
			<point x="588" y="272"/>
			<point x="588" y="301" type="curve" smooth="yes"/>
			<point x="588" y="449" type="line" smooth="yes"/>
			<point x="588" y="478"/>
			<point x="566" y="500"/>
			<point x="537" y="500" type="curve" smooth="yes"/>
			<point x="386" y="500" type="line" smooth="yes"/>
			<point x="356" y="500"/>
			<point x="351" y="500"/>
			<point x="341" y="500" type="curve"/>
			<point x="334" y="500" type="line" smooth="yes"/>
			<point x="329" y="500"/>
			<point x="331" y="500"/>
			<point x="324" y="500" type="curve" smooth="yes"/>
			<point x="314" y="500" type="line" smooth="yes"/>
			<point x="309" y="500"/>
			<point x="310" y="500"/>
			<point x="304" y="500" type="curve" smooth="yes"/>
			<point x="297" y="500" type="line"/>
			<point x="289" y="500"/>
			<point x="282" y="500"/>
			<point x="254" y="500" type="curve" smooth="yes"/>
			<point x="101" y="500" type="line" smooth="yes"/>
			<point x="72" y="500"/>
			<point x="50" y="478"/>
		</contour>
	</outline>
</glyph>
<glyph name="z" format="2">
	<advance width="637"/>
	<unicode hex="007A"/>
	<outline>
		<contour>
			<point x="101" y="500" type="curve" smooth="yes"/>
			<point x="536" y="500" type="line" smooth="yes"/>
			<point x="565" y="500"/>
			<point x="587" y="479"/>
			<point x="587" y="449" type="curve" smooth="yes"/>
			<point x="587" y="211" type="line" smooth="yes"/>
			<point x="587" y="182"/>
			<point x="587" y="185"/>
			<point x="587" y="167" type="curve"/>
			<point x="587" y="160" type="line" smooth="yes"/>
			<point x="587" y="154"/>
			<point x="587" y="156"/>
			<point x="587" y="150" type="curve" smooth="yes"/>
			<point x="587" y="140" type="line" smooth="yes"/>
			<point x="587" y="134"/>
			<point x="587" y="136"/>
			<point x="587" y="130" type="curve" smooth="yes"/>
			<point x="587" y="123" type="line"/>
			<point x="587" y="111"/>
			<point x="587" y="108"/>
			<point x="587" y="79" type="curve" smooth="yes"/>
			<point x="587" y="51" type="line" smooth="yes"/>
			<point x="587" y="22"/>
			<point x="565" y="0"/>
			<point x="536" y="0" type="curve" smooth="yes"/>
			<point x="101" y="0" type="line" smooth="yes"/>
			<point x="72" y="0"/>
			<point x="50" y="22"/>
			<point x="50" y="51" type="curve" smooth="yes"/>
			<point x="50" y="289" type="line" smooth="yes"/>
			<point x="50" y="318"/>
			<point x="50" y="321"/>
			<point x="50" y="333" type="curve"/>
			<point x="50" y="340" type="line" smooth="yes"/>
			<point x="50" y="346"/>
			<point x="50" y="344"/>
			<point x="50" y="350" type="curve" smooth="yes"/>
			<point x="50" y="360" type="line" smooth="yes"/>
			<point x="50" y="366"/>
			<point x="50" y="364"/>
			<point x="50" y="370" type="curve" smooth="yes"/>
			<point x="50" y="377" type="line"/>
			<point x="50" y="392"/>
			<point x="50" y="392"/>
			<point x="50" y="421" type="curve" smooth="yes"/>
			<point x="50" y="449" type="line" smooth="yes"/>
			<point x="50" y="479"/>
			<point x="72" y="500"/>
		</contour>
	</outline>
</glyph>
<glyph name="endash" format="2">
	<advance width="600"/>
	<unicode hex="2013"/>
	<outline>
		<contour>
			<point x="50" y="313" type="curve" smooth="yes"/>
			<point x="50" y="264" type="line" smooth="yes"/>
			<point x="50" y="256"/>
			<point x="57" y="249"/>
			<point x="65" y="249" type="curve" smooth="yes"/>
			<point x="546" y="249" type="line" smooth="yes"/>
			<point x="554" y="249"/>
			<point x="561" y="256"/>
			<point x="561" y="264" type="curve" smooth="yes"/>
			<point x="561" y="313" type="line" smooth="yes"/>
			<point x="561" y="321"/>
			<point x="554" y="328"/>
			<point x="546" y="328" type="curve" smooth="yes"/>
			<point x="65" y="328" type="line" smooth="yes"/>
			<point x="57" y="328"/>
			<point x="50" y="321"/>
		</contour>
	</outline>
</glyph>
<glyph name="emdash" format="2">
	<advance width="600"/>
	<unicode hex="2014"/>
	<outline>
		<contour>
			<point x="-180" y="313" type="curve" smooth="yes"/>
			<point x="-180" y="264" type="line" smooth="yes"/>
			<point x="-180" y="256"/>
			<point x="-173" y="249"/>
			<point x="-165" y="249" type="curve" smooth="yes"/>
			<point x="746" y="249" type="line" smooth="yes"/>
			<point x="754" y="249"/>
			<point x="761" y="256"/>
			<point x="761" y="264" type="curve" smooth="yes"/>
			<point x="761" y="313" type="line" smooth="yes"/>
			<point x="761" y="321"/>
			<point x="754" y="328"/>
			<point x="746" y="328" type="curve" smooth="yes"/>
			<point x="-165" y="328" type="line" smooth="yes"/>
			<point x="-173" y="328"/>
			<point x="-180" y="321"/>
		</contour>
	</outline>
</glyph>
<glyph name="guilsinglright" format="2">
	<advance width="600"/>
	<unicode hex="203A"/>
	<outline>
		<contour>
			<point x="398" y="60" type="line" smooth="yes"/>
			<point x="408" y="60"/>
			<point x="417" y="69"/>
			<point x="417" y="79" type="curve" smooth="yes"/>
			<point x="417" y="462" type="line" smooth="yes"/>
			<point x="417" y="472"/>
			<point x="408" y="481"/>
			<point x="398" y="481" type="curve" smooth="yes"/>
			<point x="198" y="481" type="line" smooth="yes"/>
			<point x="188" y="481"/>
			<point x="179" y="472"/>
			<point x="179" y="462" type="curve" smooth="yes"/>
			<point x="179" y="360" type="line" smooth="yes"/>
			<point x="179" y="349"/>
			<point x="188" y="341"/>
			<point x="198" y="341" type="curve" smooth="yes"/>
			<point x="258" y="341" type="line" smooth="yes"/>
			<point x="268" y="341"/>
			<point x="277" y="331"/>
			<point x="277" y="321" type="curve" smooth="yes"/>
			<point x="277" y="220" type="line" smooth="yes"/>
			<point x="277" y="209"/>
			<point x="268" y="200"/>
			<point x="258" y="200" type="curve" smooth="yes"/>
			<point x="198" y="200" type="line" smooth="yes"/>
			<point x="188" y="200"/>
			<point x="179" y="191"/>
			<point x="179" y="181" type="curve" smooth="yes"/>
			<point x="179" y="79" type="line" smooth="yes"/>
			<point x="179" y="69"/>
			<point x="188" y="60"/>
			<point x="198" y="60" type="curve" smooth="yes"/>
		</contour>
	</outline>
</glyph>
